<?xml version="1.0" standalone="no"?>
<!DOCTYPE svg PUBLIC "-//W3C//DTD SVG 1.1//EN" "http://www.w3.org/Graphics/SVG/1.1/DTD/svg11.dtd">
<svg version="1.1" xmlns="http://www.w3.org/2000/svg" xmlns:xlink="http://www.w3.org/1999/xlink"><metadata>This SVG WebFont was generated by YouWorkForThem.
Â©2022 Martin Katibi. All Rights Reserved.</metadata><defs><font horiz-adv-x="435" id="ywftsvg"><font-face ascent="800" bbox="-3 -175 890 846" cap-height="700" descent="-200" font-family="" font-stretch="normal" font-weight="400" panose-1="0 0 0 0 0 0 0 0 0 0" underline-position="0" underline-thickness="0" unicode-range="U+000D-FB02" units-per-em="1000" x-height="525"/><missing-glyph d="M30 700h242v-700h-242v700zM85 611v-31h132v31h-52v20h52v31h-132v-31h52v-33l-5 13h-47zM85 537v-42h132v31h-50v6q0 40 -41 40t-41 -35zM126 543q16 0 16 -11l-1 -19l-5 13h-26v6q0 11 16 11zM85 430v-31l80 27h52v32h-52l-80 28v-32l46 -12zM85 378v-31h132v59h-28 v-41l-5 13h-99zM124 337q-42 0 -42 -40q0 -24 16 -33t57 -9q36 0 50.5 8t14.5 31q0 13 -5 18h2v25h-72v-41h22v9q29 0 29 -8q0 -7 -8.5 -9t-35.5 -2q-46 0 -46 11q0 8 19 8h7v32h-8zM151 125q38 0 53.5 9t15.5 31q0 23 -15.5 32.5t-53.5 9.5q-37 0 -52.5 -9t-15.5 -32 q0 -22 15.5 -31.5t52.5 -9.5zM150 175q30 0 38.5 -1.5t8.5 -7.5q0 -10 -44 -10q-29 0 -38 2t-9 8t7.5 7.5t36.5 1.5zM217 87v28h-132v-29h57l-57 -20v-28h132v28h-57z" horiz-adv-x="303"/><glyph d="M368 687q-46 -4 -46 -92v-70h98l-15 -50q-4 38 -83 38v-513h-73v513h-113v-513h-73v513h-33v12h33v15q0 57 32.5 108.5t103.5 51.5q57 0 95 -36q36 36 91 36q58 0 95 -37l-19 -67q-18 46 -43.5 70t-49.5 21zM182 687q-46 -4 -46 -92v-70h113v15q0 43 16 79q-37 73 -83 68 z" glyph-name="uniFB00" horiz-adv-x="511" unicode="ff"/><glyph d="M211 687q-34 0 -54 -23.5t-20 -68.5v-70h98l-15 -50q-4 38 -83 38v-513h-73v513h-33v12h33v15q0 55 37.5 107.5t109.5 52.5q59 0 105 -24.5t62 -54.5q6 -9 6 -21q0 -26 -21.5 -44t-49.5 -25q7 12 7 27q0 43 -33 86t-76 43zM384 0h-73v484q49 10 73 41v-525z" glyph-name="uniFB01" horiz-adv-x="414" unicode="fi"/><glyph d="M211 687q-34 0 -54 -23.5t-20 -68.5v-70h98l-15 -50q-4 38 -83 38v-513h-73v513h-33v12h33v15q0 55 37.5 107.5t109.5 52.5t122.5 -32.5t50.5 -98.5v-569h-73v568q0 59 -30.5 89t-69.5 30z" glyph-name="uniFB02" horiz-adv-x="414" unicode="fl"/><glyph d="M210 687q-33 0 -53.5 -24t-20.5 -68v-70h98l-15 -50q-4 38 -83 38v-513h-73v513h-33v12h33v15q0 55 38 107.5t109 52.5q59 0 107 -24.5t64 -54.5q6 -9 6 -21q0 -26 -21 -44t-50 -25q7 12 7 28q0 42 -34.5 85t-78.5 43zM387 525v-540q0 -34 -11 -68t-43.5 -63t-81.5 -29 q-57 0 -96 36l19 68q18 -46 43.5 -70t49.5 -21q47 5 47 92v554q49 10 73 41z" glyph-name="f_j.liga" horiz-adv-x="418" unicode="fj"/><glyph d="M30 700h242v-700h-242v700zM85 611v-31h132v31h-52v20h52v31h-132v-31h52v-33l-5 13h-47zM85 537v-42h132v31h-50v6q0 40 -41 40t-41 -35zM126 543q16 0 16 -11l-1 -19l-5 13h-26v6q0 11 16 11zM85 430v-31l80 27h52v32h-52l-80 28v-32l46 -12zM85 378v-31h132v59h-28 v-41l-5 13h-99zM124 337q-42 0 -42 -40q0 -24 16 -33t57 -9q36 0 50.5 8t14.5 31q0 13 -5 18h2v25h-72v-41h22v9q29 0 29 -8q0 -7 -8.5 -9t-35.5 -2q-46 0 -46 11q0 8 19 8h7v32h-8zM151 125q38 0 53.5 9t15.5 31q0 23 -15.5 32.5t-53.5 9.5q-37 0 -52.5 -9t-15.5 -32 q0 -22 15.5 -31.5t52.5 -9.5zM150 175q30 0 38.5 -1.5t8.5 -7.5q0 -10 -44 -10q-29 0 -38 2t-9 8t7.5 7.5t36.5 1.5zM217 87v28h-132v-29h57l-57 -20v-28h132v28h-57z" glyph-name=".notdef" horiz-adv-x="303"/><glyph glyph-name="glyph1" horiz-adv-x="0"/><glyph glyph-name="glyph1" horiz-adv-x="0"/><glyph glyph-name="space" horiz-adv-x="250" unicode=" "/><glyph d="M63 131h-13l-28 533q-1 14 9.5 25t25.5 11q14 0 24.5 -11t9.5 -25zM93 37q0 -16 -10.5 -26.5t-25.5 -10.5q-16 0 -26.5 10.5t-10.5 26.5q0 15 10.5 25.5t26.5 10.5q15 0 25.5 -10.5t10.5 -25.5z" glyph-name="exclam" horiz-adv-x="113" unicode="!"/><glyph d="M57 700l-14 -204h-9l-14 204h37zM114 700l-14 -204h-8l-14 204h36z" glyph-name="quotedbl" horiz-adv-x="135" unicode="&quot;"/><glyph d="M563 452h-136l-43 -204h133v-12h-136l-50 -236h-12l50 236h-206l-50 -236h-12l50 236h-131v12h134l43 204h-131v12h133l50 236h13l-50 -236h205l50 236h13l-50 -236h133v-12zM372 248l43 204h-206l-43 -204h206z" glyph-name="numbersign" horiz-adv-x="584" unicode="#"/><glyph d="M394 183q0 -94 -52 -142.5t-123 -49.5v-33h-13v34q-80 4 -130 70.5t-45 150.5l82 39q-9 -57 -5.5 -108t29.5 -89.5t69 -47.5v366q-45 43 -66 65t-43 62.5t-22 80.5q0 56 36 89.5t95 37.5v34h13v-33q40 0 87 -11.5t74 -29.5l-21 -73q-61 75 -140 92v-231q82 -68 110 -101 q65 -78 65 -172zM109 616q0 -42 25 -76.5t72 -73.5v223q-6 1 -18 1q-30 0 -54.5 -17.5t-24.5 -56.5zM231 5q42 0 77.5 31t35.5 104q0 44 -20 87t-42.5 69.5t-62.5 65.5v-356q3 -1 12 -1z" glyph-name="dollar" horiz-adv-x="424" unicode="$"/><glyph d="M140 700q49 0 84 -62t35 -151t-35 -151t-84 -62q-50 0 -85 62.5t-35 150.5t35 150.5t85 62.5zM177 0h-13l247 700h12zM160 286q32 3 49 64.5t8 144.5q-8 83 -36.5 139.5t-60.5 53.5q-32 -4 -49 -65t-9 -144t37 -139.5t61 -53.5zM449 426q50 0 85 -62.5t35 -150.5 t-35 -150.5t-85 -62.5t-85 62.5t-35 150.5t35 150.5t85 62.5zM469 12q32 4 49 65t9 144q-9 84 -37.5 140t-60.5 53t-49 -64.5t-9 -144.5t37 -139.5t61 -53.5z" glyph-name="percent" horiz-adv-x="589" unicode="%"/><glyph d="M425 115l3 -5q3 -4 5.5 -7.5t7.5 -9.5t10 -11t11.5 -10.5t13 -9t14.5 -6t16 -2.5q14 0 31 9l-64 -63q-23 1 -46 16t-33 26t-15 18q-60 -60 -147 -60q-93 0 -152.5 58.5t-59.5 142.5q0 64 38 116t96 74l-53 78q-25 40 -25 83q0 58 39 102t100 46h7q38 0 67.5 -14.5 t46.5 -37.5t26 -45t11 -42l-70 -23q-1 11 -5 28t-13.5 48.5t-28 52.5t-42.5 21q-57 0 -73 -55t29 -130q81 -130 248 -377q7 12 12 35t-5 66t-43 80l81 26q18 -50 3 -116.5t-41 -101.5zM371 70l-211 312q-31 -18 -51 -62t-20 -91q0 -82 52 -144t122 -62q73 0 108 47z" glyph-name="ampersand" horiz-adv-x="557" unicode="&amp;"/><glyph d="M57 700l-14 -204h-9l-14 204h37z" glyph-name="quotesingle" horiz-adv-x="77" unicode="'"/><glyph d="M229 737q-136 -90 -136 -407q0 -158 34 -254.5t109 -143.5v-12q-105 48 -160.5 157t-55.5 259q0 143 56.5 252t152.5 161v-12z" glyph-name="parenleft" horiz-adv-x="256" unicode="("/><glyph d="M27 737v12q96 -52 152.5 -161t56.5 -252q0 -150 -55.5 -259t-160.5 -157v12q75 47 109 143.5t34 254.5q0 317 -136 407z" glyph-name="parenright" horiz-adv-x="256" unicode=")"/><glyph d="M194 556q17 -8 6 -23q-4 -6 -11 -7t-12 4l-61 55l12 -81q1 -7 -4 -12.5t-12 -5.5t-12 5.5t-4 12.5l12 81l-60 -55q-15 -11 -24 3q-11 15 6 23l75 37l-75 37q-16 9 -6 23q4 6 11 7t13 -4l60 -55l-12 81q-1 8 4 13t12 5t12 -5t4 -13l-12 -81l61 55q5 5 12 4t11 -7 q10 -14 -6 -23l-75 -37z" glyph-name="asterisk" horiz-adv-x="224" unicode="*"/><glyph d="M396 266v-12h-182v-254h-12v254h-182v12h182v254h12v-254h182z" glyph-name="plus" horiz-adv-x="416" unicode="+"/><glyph d="M57 73q15 0 25.5 -10.5t10.5 -25.5q0 -6 -1.5 -13.5t-6 -22.5t-17.5 -29.5t-32 -23.5l-2 2q11 7 23 23t12 30q-4 -2 -12 -2q-16 0 -26.5 10.5t-10.5 25.5t10.5 25.5t26.5 10.5z" glyph-name="comma" horiz-adv-x="113" unicode=","/><glyph d="M206 257h-186v12h186v-12z" glyph-name="hyphen" horiz-adv-x="227" unicode="-"/><glyph d="M93 37q0 -16 -10.5 -26.5t-25.5 -10.5q-16 0 -26.5 10.5t-10.5 26.5q0 15 10.5 25.5t26.5 10.5q15 0 25.5 -10.5t10.5 -25.5z" glyph-name="period" horiz-adv-x="113" unicode="."/><glyph d="M32 0h-12l126 700h12z" glyph-name="slash" horiz-adv-x="179" unicode="/"/><glyph d="M227 700q81 0 138.5 -102.5t57.5 -247.5t-57.5 -247.5t-138.5 -102.5q-82 0 -139.5 102.5t-57.5 247.5t57.5 247.5t139.5 102.5zM260 20q53 6 80 106.5t14 236.5q-14 137 -61 229.5t-100 87.5q-52 -5 -80 -105.5t-14 -237.5t61 -229.5t100 -87.5z" glyph-name="zero" horiz-adv-x="454" unicode="0"/><glyph d="M70 0v628q0 14 -9.5 21.5t-18 8.5t-12.5 0l113 42v-700h-73z" glyph-name="one" horiz-adv-x="174" unicode="1"/><glyph d="M337 114v-114h-297l50 64q117 151 175 342q17 66 13.5 128.5t-31.5 108t-68 45.5q-39 0 -58.5 -30t-17.5 -70t9 -80l-82 26q3 69 40 117.5t109 48.5q94 0 145.5 -80t11.5 -202q-41 -127 -223 -344q168 -7 224 40z" glyph-name="two" horiz-adv-x="383" unicode="2"/><glyph d="M371 236q0 -68 -16 -117.5t-42.5 -73.5t-53 -34.5t-54.5 -10.5q-82 0 -128.5 74t-46.5 160h75q0 -91 36 -154.5t86 -63.5q37 0 71 38q36 41 31 104.5t-30.5 122.5t-63.5 101.5t-68 42.5l-9 37q26 -13 48 -13q31 0 51.5 24.5t25 59.5t-0.5 70.5t-27 60t-53 24.5 q-35 0 -53 -27t-18 -67t8 -85l-80 25q0 74 41 120t102 46q64 0 108.5 -35.5t44.5 -96.5q0 -48 -41.5 -85.5t-98.5 -46.5q75 0 115.5 -62t40.5 -138z" glyph-name="three" horiz-adv-x="401" unicode="3"/><glyph d="M258 574q49 10 73 41v-615h-73v254h-228q10 8 15 13q41 39 58 116.5t12 150t-23 121.5q1 0 10 5t19 10t22.5 13.5t21.5 16.5q14 -103 -3.5 -201t-45 -153.5t-54.5 -78.5h196v307z" glyph-name="four" horiz-adv-x="361" unicode="4"/><glyph d="M205 497q85 0 133.5 -59t48.5 -148q0 -116 -55 -203t-141 -87q-53 0 -91 40t-54 95t-16 115l89 29q-10 -26 -13.5 -69t1.5 -88t29 -77t63 -32q57 0 87 70t30 173q0 99 -33.5 161t-99.5 62q-67 0 -100 -37l15 258h259v-114q-55 48 -251 40l-9 -158q44 29 108 29z" glyph-name="five" horiz-adv-x="418" unicode="5"/><glyph d="M411 248q0 -100 -54 -174t-122 -74q-58 0 -100.5 36.5t-64 93.5t-31 112t-9.5 108q0 142 65.5 246t147.5 104q35 0 60.5 -11.5t38 -29.5t17 -28.5t6.5 -18.5l-81 -27q8 36 -2.5 69.5t-41.5 33.5q-56 0 -95.5 -92.5t-47.5 -219.5q14 45 50 83t88 38q44 0 79.5 -24 t55.5 -62t30.5 -80t10.5 -83zM339 248q0 99 -32 167t-83 68q-52 0 -93 -64q-38 -58 -30 -141q11 -110 48 -188t83 -78q50 0 78.5 70t28.5 166z" glyph-name="six" horiz-adv-x="442" unicode="6"/><glyph d="M30 700h296l-48 -73q-76 -115 -106 -253.5t-15 -373.5h-78q15 194 55.5 341.5t129.5 285.5h-35q-152 0 -199 -41v114z" glyph-name="seven" horiz-adv-x="356" unicode="7"/><glyph d="M425 164q0 -72 -51 -118t-145 -46q-90 0 -144.5 47.5t-54.5 116.5q0 70 46 128t120 94q-74 48 -103 86.5t-29 89.5q0 66 47 102t116 36q68 0 116.5 -33.5t48.5 -104.5q0 -50 -39 -100.5t-110 -90.5q47 -27 72 -43.5t54.5 -42.5t42.5 -55.5t13 -65.5zM232 378 q87 47 87 176q0 134 -91 134q-46 0 -69 -43t-23 -90q0 -66 20 -103.5t76 -73.5zM226 12q62 0 94 40.5t32 108.5q0 69 -31.5 117.5t-113.5 100.5q-53 -37 -78.5 -83.5t-25.5 -131.5q0 -68 31 -110t92 -42z" glyph-name="eight" horiz-adv-x="455" unicode="8"/><glyph d="M30 452q0 100 54 174t122 74q58 0 100.5 -36.5t64 -93.5t31 -112t9.5 -108q0 -142 -65.5 -246t-147.5 -104q-93 0 -122 88l81 27q-8 -36 2.5 -69.5t41.5 -33.5q56 0 95.5 92.5t47.5 220.5q-14 -46 -50 -84t-88 -38q-58 0 -99.5 41.5t-59 96.5t-17.5 111zM102 452 q0 -98 32 -166.5t83 -68.5q50 0 93 64q38 58 30 141q-11 110 -48 188t-83 78q-49 0 -78 -70.5t-29 -165.5z" glyph-name="nine" horiz-adv-x="442" unicode="9"/><glyph d="M93 360q0 -15 -10.5 -25.5t-25.5 -10.5q-16 0 -26.5 10.5t-10.5 25.5q0 16 10.5 26.5t26.5 10.5q15 0 25.5 -10.5t10.5 -26.5zM93 37q0 -16 -10.5 -26.5t-25.5 -10.5q-16 0 -26.5 10.5t-10.5 26.5q0 15 10.5 25.5t26.5 10.5q15 0 25.5 -10.5t10.5 -25.5z" glyph-name="colon" horiz-adv-x="113" unicode=":"/><glyph d="M93 413q0 -15 -10.5 -25.5t-25.5 -10.5q-16 0 -26.5 10.5t-10.5 25.5t10.5 25.5t26.5 10.5q15 0 25.5 -10.5t10.5 -25.5zM57 125q15 0 25.5 -10.5t10.5 -25.5q0 -6 -1.5 -13.5t-6 -22.5t-17.5 -29.5t-32 -23.5l-2 2q11 7 23 23t12 30q-4 -2 -12 -2q-16 0 -26.5 10.5 t-10.5 25.5t10.5 25.5t26.5 10.5z" glyph-name="semicolon" horiz-adv-x="113" unicode=";"/><glyph d="M225 525l-190 -262l190 -263h-15l-190 263l190 262h15z" glyph-name="less" horiz-adv-x="246" unicode="&lt;"/><glyph d="M396 327v-12h-376v12h376zM396 210v-12h-376v12h376z" glyph-name="equal" horiz-adv-x="416" unicode="="/><glyph d="M20 525h15l190 -262l-190 -263h-15l190 263z" glyph-name="greater" horiz-adv-x="246" unicode=">"/><glyph d="M194 688q-58 0 -82.5 -58.5t-9.5 -121.5l-82 26q2 66 50.5 116t123.5 50q60 0 102.5 -41t28.5 -100q-7 -33 -28.5 -66.5t-45 -65t-47 -70t-38.5 -96.5t-15 -130h-12q0 101 17 176t52 154t40 95q19 56 4 94t-58 38zM181 37q0 -16 -10.5 -26.5t-25.5 -10.5t-26 10.5 t-11 26.5q0 15 11 25.5t26 10.5t25.5 -10.5t10.5 -25.5z" glyph-name="question" horiz-adv-x="349" unicode="?"/><glyph d="M370 700q145 0 247.5 -102.5t102.5 -247.5q0 -35 -9.5 -76.5t-27 -82t-49.5 -67.5t-71 -27q-37 0 -73 24.5t-36 59.5q-47 -76 -112 -76q-56 0 -89.5 35t-33.5 86q0 36 16.5 67t41.5 51t54.5 41.5t54.5 39t41.5 42.5t16.5 54q0 63 -71 63q-35 0 -60.5 -17.5t-34.5 -38.5 l-19 67h119q30 0 52 -4.5t44.5 -17.5t34.5 -42.5t12 -73.5v-254q0 -41 12.5 -65t31.5 -26q52 -6 92 60q55 89 51 194q-6 127 -95.5 218.5t-215.5 102.5q-155 12 -265.5 -98.5t-98.5 -265.5q11 -126 103 -215.5t218 -94.5q97 -6 184 44l6 -10q-80 -47 -174 -47 q-145 0 -247.5 102.5t-102.5 247.5t102.5 247.5t247.5 102.5zM454 277v224q-9 -32 -29.5 -59.5t-43.5 -47t-45 -41.5t-36 -55.5t-14 -77.5q0 -47 16 -74.5t47 -27.5q48 0 76.5 45t28.5 114z" glyph-name="at" horiz-adv-x="741" unicode="@"/><glyph d="M322 700h73v-700h-73v433q-106 -18 -217 -72q12 -33 57 -132q70 -151 73 -229h-73q1 39 -15 102q-7 24 -35 106q-58 159 -68 223q-5 34 -4 60q2 50 18 87.5t40.5 60.5t61 37t75 19t87.5 5zM77 544q-4 -17 -4 -53q1 -38 17 -87q115 57 232 78v206q-41 0 -78.5 -6.5 t-74 -21.5t-61 -45t-31.5 -71zM100 373q116 54 222 72v25q-111 -20 -228 -78q1 -3 3 -9.5t3 -9.5z" glyph-name="A" unicode="A"/><glyph d="M220 385q0 -15 31.5 -41t69 -51.5t69 -65.5t31.5 -80q0 -45 -32 -76.5t-85 -45.5t-100.5 -19.5t-100.5 -5.5h-73v700h73q34 0 65 -3t67.5 -11.5t62 -23t43 -40t17.5 -59.5q0 -30 -21.5 -59t-47.5 -47t-47.5 -38t-21.5 -34zM103 12q37 0 71.5 4t78 16.5t69.5 42t26 72.5 q0 39 -22 79t-48 66t-48 52t-22 41q0 14 12 30t27 30.5t27 44t12 67.5q0 121 -183 131v-676z" glyph-name="B" horiz-adv-x="452" unicode="B"/><glyph d="M353 66l7 -26q-49 -49 -110 -49q-91 0 -155.5 105t-64.5 254t64.5 254t155.5 105q59 0 110 -49l-21 -75q-59 112 -128 103q-62 -7 -95 -111t-17 -244q15 -133 66 -225t111 -97q8 0 12 1q40 5 65 54z" glyph-name="C" horiz-adv-x="391" unicode="C"/><glyph d="M401 362q0 -49 -10.5 -98t-34 -97t-57 -85t-84.5 -59.5t-112 -22.5h-73v700h73q76 0 135 -30.5t93.5 -80.5t52 -108t17.5 -119zM103 12q44 0 79.5 15t58.5 37.5t40 55.5t26 64t14 67.5t6.5 60.5t1.5 50q0 326 -226 326v-676z" glyph-name="D" horiz-adv-x="432" unicode="D"/><glyph d="M288 12q40 5 65 54l7 -26q-49 -49 -110 -49q-91 0 -155.5 105t-64.5 254t64.5 254t155.5 105q59 0 110 -49l-21 -75q-59 112 -128 103q-62 -7 -95 -111t-17 -244l3 -27q8 86 58.5 141.5t121.5 55.5l21 -73q-24 7 -50 7q-68 0 -107.5 -52.5t-33.5 -133.5 q24 -103 69 -169.5t95 -70.5q8 0 12 1z" glyph-name="E" horiz-adv-x="391" unicode="E"/><glyph d="M138 0q-108 204 -108 350q0 149 64.5 254t155.5 105q59 0 110 -49l-21 -75q-59 111 -128 103q-62 -7 -95 -111.5t-17 -243.5l3 -27q8 86 58.5 141.5t121.5 55.5l21 -73q-22 7 -47 7q-72 0 -113 -56t-28 -136q4 -24 20 -63t31 -70t35 -69t22 -43h-85z" glyph-name="F" horiz-adv-x="391" unicode="F"/><glyph d="M299 11q34 0 52 27.5t18 61.5t-1 63q-9 87 -40.5 187.5t-56.5 127.5h73q39 -104 51 -198.5t8 -130t-11 -60.5q-28 -98 -121 -98q-100 0 -170.5 105t-70.5 254t70.5 254t170.5 105q66 0 121 -49l-24 -75q-64 112 -139 103q-69 -7 -107 -110.5t-24 -244.5 q11 -117 74.5 -219.5t126.5 -102.5z" glyph-name="G" horiz-adv-x="434" unicode="G"/><glyph d="M318 700h73v-700h-73v433q-104 -18 -215 -71v-362h-73v700h73v-288q107 51 215 70v218zM103 376q115 53 215 69v25q-108 -20 -215 -71v-23z" glyph-name="H" horiz-adv-x="421" unicode="H"/><glyph d="M103 0h-73v700h73v-700z" glyph-name="I" horiz-adv-x="133" unicode="I"/><glyph d="M262 700v-540q0 -34 -11 -68t-43.5 -63t-81.5 -29q-56 0 -96 37l27 94q6 -41 31 -79.5t48 -38.5q24 0 38.5 24t14.5 68v595h73z" glyph-name="J" horiz-adv-x="292" unicode="J"/><glyph d="M370 0h-73q3 74 -5 135q-10 72 -36 129q-11 24 -32.5 68t-28.5 58q-34 71 -39 119q-36 -61 -53 -150v-359h-73v700h73v-288q13 67 40 126.5t79 107.5t117 55v-73q-50 9 -112 -37q-35 -28 -61 -67q6 -50 49 -121q9 -15 37 -54.5t42 -63.5q67 -110 76 -285z" glyph-name="K" horiz-adv-x="400" unicode="K"/><glyph d="M103 12q154 0 197 61v-73h-270v700h73v-688z" glyph-name="L" horiz-adv-x="330" unicode="L"/><glyph d="M381 700h73v-700h-85q12 60 12 167v344q-7 -67 -12 -110.5t-14 -105.5t-20 -101.5t-25.5 -78.5t-35 -58t-44.5 -19q-56 0 -82.5 67t-29.5 162.5t-4 191t-16.5 162.5t-55.5 67v-376q0 -70 8 -127.5t18.5 -88.5t24.5 -55t20 -30.5t12 -10.5h-95v700h12q48 0 78 -44 t41 -109.5t18 -142.5t10.5 -142.5t17.5 -109.5t40 -44q21 0 39.5 24.5t31.5 72.5t23 96.5t18 119.5t12.5 117t9.5 113v49z" glyph-name="M" horiz-adv-x="485" unicode="M"/><glyph d="M398 700v-700h-12q-54 0 -94 70t-64 170.5t-47 201t-57.5 172.5t-81.5 74q0 -311 83 -688h-95v700h12q64 0 109.5 -38t68.5 -98.5t37.5 -134t23.5 -147t19.5 -134t31.5 -98.5t54 -38v376q0 70 -8 127.5t-18 89t-24 55t-20 30t-12 10.5h94z" glyph-name="N" horiz-adv-x="428" unicode="N"/><glyph d="M250 709q91 0 155.5 -105.5t64.5 -253.5t-64.5 -253.5t-155.5 -105.5t-155.5 105t-64.5 254t64.5 254t155.5 105zM288 12q63 7 96 111t17 244t-71.5 234t-118.5 87q-62 -7 -95 -111t-17 -244t71.5 -234.5t117.5 -86.5z" glyph-name="O" horiz-adv-x="500" unicode="O"/><glyph d="M103 700q44 0 85 -5t85.5 -18.5t71 -42.5t26.5 -71q0 -32 -26 -65.5t-64 -64.5t-76 -63t-67.5 -73.5t-34.5 -83.5v-213h-73v700h73zM103 261q15 37 49.5 78t65.5 70.5t55.5 69.5t24.5 78q0 121 -195 131v-427z" glyph-name="P" horiz-adv-x="401" unicode="P"/><glyph d="M369 48q95 -42 95 -115q0 -33 -22.5 -57t-61.5 -24q-18 0 -39 6q-2 1 -19.5 7t-29.5 9.5t-31.5 9t-39 8t-38.5 2.5q-60 0 -101 -30v74q40 29 101 29q74 0 155 -34q50 -20 77 -20q29 0 29 29q0 58 -86 96q-50 -47 -108 -47q-91 0 -155.5 105t-64.5 254t64.5 254t155.5 105 t155.5 -105.5t64.5 -253.5q0 -93 -27.5 -173t-73.5 -129zM99 333q16 -152 80 -249q98 -2 173 -29q33 47 46.5 131t2.5 181q-16 140 -71.5 234t-118.5 87q-62 -7 -95 -111t-17 -244zM288 12q30 3 55 32q-64 25 -155 28q49 -66 100 -60z" glyph-name="Q" horiz-adv-x="500" unicode="Q"/><glyph d="M397 135q0 -69 -31 -135h-72q30 81 30 147q0 37 -26 72.5t-56.5 57.5t-56.5 45t-26 38q0 14 20 34t43.5 39t43.5 52.5t20 71.5q0 121 -183 131v-688h-73v700h73q34 0 65 -3t67.5 -11.5t62 -23t43 -40t17.5 -59.5q0 -30 -29 -62.5t-64 -55.5t-64 -47t-29 -38t35 -36.5 t77.5 -45t77.5 -61t35 -82.5z" glyph-name="R" horiz-adv-x="427" unicode="R"/><glyph d="M32 213l81 39q-9 -62 -4.5 -116.5t37 -92.5t85.5 -38q42 0 77.5 31t35.5 104q0 47 -20 90t-50 74.5t-64.5 66t-64.5 64t-50 68t-20 78.5q0 60 40.5 94t105.5 34q41 0 86.5 -11.5t72.5 -30.5l-21 -72q-33 41 -80.5 68t-90.5 27q-30 0 -54.5 -17.5t-24.5 -56.5 q0 -43 29.5 -82t71 -72t83.5 -69.5t71.5 -90.5t29.5 -119q0 -94 -52.5 -143t-124.5 -49q-85 0 -138 67.5t-47 154.5z" glyph-name="S" horiz-adv-x="424" unicode="S"/><glyph d="M109 687q-39 0 -39 -27q0 -16 12 -23.5t26 -7.5q8 0 34.5 9t42.5 9q51 0 78.5 -37t27.5 -84v-526h-72v602q0 33 -35 33q-18 0 -55 -14.5t-57 -14.5q-18 0 -30 12.5t-12 29.5q0 52 99 52q22 0 92.5 -7t114.5 -7q71 0 122 14l21 -73q-32 -9 -74 -9q-67 0 -168.5 34.5 t-127.5 34.5z" glyph-name="T" horiz-adv-x="509" unicode="T"/><glyph d="M332 700h73v-700h-73v46q-41 -46 -112 -46q-86 0 -138 58t-52 160q0 68 31.5 174.5t31.5 161.5q0 58 -18.5 95t-44.5 51h93q43 -49 43 -128q0 -58 -32 -171.5t-32 -179.5q0 -53 10 -97t38.5 -78t72.5 -34q68 0 109 52v636z" glyph-name="U" unicode="U"/><glyph d="M109 700q40 -53 50.5 -131t-0.5 -177q-20 -241 100 -363l-2 -4l8 -8l3 3l-9 9q59 83 94 200t31.5 247.5t-58.5 223.5h79q35 -74 37 -170.5t-23.5 -189t-65 -175.5t-85.5 -145q4 -4 13 -11.5t10 -8.5h-72q-75 60 -108 147t-25 231q8 141 -2.5 201t-53.5 121h79z" glyph-name="V" horiz-adv-x="473" unicode="V"/><glyph d="M702 700q49 -103 34.5 -233t-61 -245.5t-110.5 -200.5q7 -7 23 -21h-72q-111 89 -130 240q-47 -125 -118 -219q7 -7 23 -21h-72q-75 60 -108 147t-25 231q8 141 -2.5 201t-53.5 121h79q40 -53 50.5 -131t-0.5 -177q-20 -241 100 -363q50 70 84 169t41 202q6 115 -3 175 t-54 125h79q40 -53 50.5 -131t-0.5 -177q-20 -241 100 -363q59 83 94 200t31.5 247.5t-58.5 223.5h79z" glyph-name="W" horiz-adv-x="769" unicode="W"/><glyph d="M409 697q2 -10 2.5 -17.5t-5 -38t-20.5 -61.5t-51.5 -82.5t-89.5 -107.5l164 -390h-78l-141 337q-47 -51 -70.5 -103.5t-26 -88t7.5 -72.5t17 -49t15 -24h-95q-3 10 -5.5 23t0 48t15 72.5t47.5 93t90 112.5l-148 351h79l124 -297q46 50 71 98t29.5 78.5t-2 60t-12 39 t-12.5 18.5h95z" glyph-name="X" horiz-adv-x="441" unicode="X"/><glyph d="M402 700q41 -86 -9.5 -217t-130.5 -217v-266h-73v266q-60 41 -93.5 91t-33.5 130q0 18 2 56t1.5 56t-9 47t-26.5 54h73q25 -32 31.5 -79.5t-0.5 -108.5q-5 -63 18 -108.5t105 -125.5q67 74 93.5 200.5t-21.5 221.5h73z" glyph-name="Y" horiz-adv-x="450" unicode="Y"/><glyph d="M405 73v-73h-375l285 688h-104q-39 0 -71.5 -6t-51 -13.5t-33 -17.5t-18.5 -15t-7 -9v73h369l-285 -688h110q62 0 107 15.5t56.5 26t17.5 19.5z" glyph-name="Z" horiz-adv-x="436" unicode="Z"/><glyph d="M93 -68h103v-12h-176v829h176v-12h-103v-805z" glyph-name="bracketleft" horiz-adv-x="216" unicode="["/><glyph d="M146 0l-126 700h12l126 -700h-12z" glyph-name="backslash" horiz-adv-x="179" unicode="\"/><glyph d="M123 -68v805h-103v12h176v-829h-176v12h103z" glyph-name="bracketright" horiz-adv-x="216" unicode="]"/><glyph d="M213 496h-14l-83 189l-83 -189h-13l90 204h13z" glyph-name="asciicircum" horiz-adv-x="233" unicode="^"/><glyph d="M361 -21v-12h-341v12h341z" glyph-name="underscore" horiz-adv-x="381" unicode="_"/><glyph d="M10 651h38q8 0 13 -6l46 -72h-12z" glyph-name="grave" horiz-adv-x="117" unicode="`"/><glyph d="M275 444q0 14 -2 22q-9 26 -26.5 36.5t-48.5 10.5q-38 0 -65.5 -19t-37.5 -42l-22 73h131q33 0 56.5 -5t48 -19t37.5 -46t13 -80v-375q-30 0 -51.5 21.5t-21.5 51.5q-51 -82 -122 -82q-61 0 -97.5 37.5t-36.5 93.5q0 40 18 74t45.5 56t59 45t59 42t45.5 46.5t18 58.5z M286 423q-8 -30 -25.5 -56.5t-37 -43.5t-41.5 -38.5t-39 -42t-28.5 -53.5t-11.5 -73q0 -51 17.5 -81t51.5 -30q52 0 83 49t31 124v245z" glyph-name="a" horiz-adv-x="390" unicode="a"/><glyph d="M381 310q0 -125 -78.5 -217.5t-199.5 -92.5h-73v659q49 10 73 41v-238q39 63 105 63q78 0 125.5 -63t47.5 -152zM103 13q57 3 98.5 26t64.5 62.5t33 85t10 101.5q0 29 -6 62t-19 67t-38 56.5t-57 22.5q-54 0 -86 -59v-424z" glyph-name="b" horiz-adv-x="411" unicode="b"/><glyph d="M297 55l8 -27q-42 -37 -92 -37q-76 0 -129.5 79.5t-53.5 192.5q0 112 53.5 191.5t129.5 79.5q50 0 92 -36l-21 -68q-20 45 -47.5 67t-55.5 19q-44 -5 -68.5 -83t-11.5 -181q13 -101 54 -172t85 -71q35 0 57 46z" glyph-name="c" horiz-adv-x="336" unicode="c"/><glyph d="M308 659q49 10 73 41v-700h-73v63q-39 -63 -105 -63q-78 0 -125.5 63t-47.5 152q0 123 78 213.5t200 95.5v135zM222 29q54 0 86 59v424q-76 -3 -123.5 -44t-65 -98.5t-17.5 -133.5q0 -29 6 -61.5t19 -67t38 -56.5t57 -22z" glyph-name="d" horiz-adv-x="411" unicode="d"/><glyph d="M240 9q35 0 57 46l8 -27q-42 -37 -92 -37q-76 0 -129.5 79.5t-53.5 192.5q0 61 20.5 120.5t67.5 105t111 45.5q63 0 81 -50q24 -70 -60 -177q-50 -64 -135 -131q20 -73 55 -120t70 -47zM187 512q-33 0 -55 -33t-27.5 -76.5t-8 -86.5t2.5 -64q4 -32 12 -64q113 96 131 207 q12 73 -23 105q-14 12 -32 12z" glyph-name="e" horiz-adv-x="345" unicode="e"/><glyph d="M182 687q-46 -4 -46 -92v-70h98l-15 -50q-4 38 -83 38v-513h-73v513h-33v12h33v15q0 57 32.5 108.5t103.5 51.5q58 0 95 -37l-19 -67q-18 46 -43.5 70t-49.5 21z" glyph-name="f" horiz-adv-x="325" unicode="f"/><glyph d="M252 129q115 -6 149 -74q14 -24 12 -55q-3 -75 -60 -125t-132 -50q-71 0 -118 41t-62 112q50 27 70 82q-30 11 -55.5 39.5t-25.5 57.5q22 7 49.5 29t40.5 42q-64 51 -64 131q0 69 49 117.5t117 48.5h193l-21 -73q-13 30 -43.5 45.5t-66.5 15.5q47 -19 75.5 -60.5 t28.5 -93.5q0 -68 -48.5 -116.5t-117.5 -48.5q-51 0 -92 27q-15 -18 -14 -42.5t21 -36.5q11 -7 27 -10t28 -3.5t32 0t28 0.5zM197 510q-34 0 -53 -29.5t-19 -64.5t3 -63q12 -62 46 -103t72 -41q35 0 54 29t19 63.5t-3 63.5q-11 62 -45.5 103.5t-73.5 41.5zM360 -101 q17 19 18.5 42.5t-6.5 39t-19 28.5q-28 31 -68 41t-77.5 6t-84.5 2q-10 -20 -12 -51q-3 -25 5 -52q34 -105 130 -105q74 0 114 49z" glyph-name="g" horiz-adv-x="446" unicode="g"/><glyph d="M374 525q5 -23 8.5 -56.5t5.5 -106t-14.5 -169t-51.5 -193.5h-73q29 90 45 172t19.5 133t0.5 96t-6 60t-7 26q-178 0 -198 -317v-170h-73v659q49 10 73 41v-428q19 127 67.5 190t130.5 63h73z" glyph-name="h" horiz-adv-x="418" unicode="h"/><glyph d="M66 636q17 0 27 -10t10 -25q0 -26 -21 -44.5t-50 -25.5q7 12 7 23q0 8 -4.5 23.5t-4.5 24.5q0 15 10 24.5t26 9.5zM103 0h-73v484q49 10 73 41v-525z" glyph-name="i" horiz-adv-x="133" unicode="i"/><glyph d="M225 636q16 0 26.5 -10t10.5 -25q0 -26 -21.5 -44.5t-49.5 -25.5q7 12 7 23q0 8 -4.5 23.5t-4.5 24.5q0 15 10 24.5t26 9.5zM262 525v-540q0 -34 -11 -68t-43.5 -63t-81.5 -29q-57 0 -96 36l19 68q18 -46 43.5 -70t49.5 -21q47 5 47 92v554q49 10 73 41z" glyph-name="j" horiz-adv-x="292" unicode="j"/><glyph d="M370 0h-73q4 57 -5 98q-9 42 -34 86q-10 17 -31.5 46.5t-30.5 42.5q-30 47 -30 85q-42 -60 -63 -141v-217h-73v659q49 10 73 41v-441q23 99 85 177.5t151 88.5v-73q-11 3 -21 3q-39 0 -79 -25.5t-66 -61.5q4 -40 40 -81l36.5 -36.5t41.5 -44.5q65 -77 79 -206z" glyph-name="k" horiz-adv-x="400" unicode="k"/><glyph d="M103 0h-73v659q49 10 73 41v-700z" glyph-name="l" horiz-adv-x="133" unicode="l"/><glyph d="M576 525q5 -24 8.5 -56.5t5.5 -105.5t-14.5 -169.5t-51.5 -193.5h-73q29 90 45.5 172t20 133t0.5 96t-6 60t-7 26q-127 0 -164 -273v-214h-73v487q-125 0 -164 -273v-214h-73v484q49 10 73 41v-242q21 116 59 179t105 63h73v-242q20 116 58 179t106 63h72z" glyph-name="m" horiz-adv-x="621" unicode="m"/><glyph d="M374 525q5 -23 8.5 -56.5t5.5 -106t-14.5 -169t-51.5 -193.5h-73q29 90 45 172t19.5 133t0.5 96t-6 60t-7 26q-178 0 -198 -317v-170h-73v484q49 10 73 41v-253q19 127 67.5 190t130.5 63h73z" glyph-name="n" horiz-adv-x="418" unicode="n"/><glyph d="M213 534q76 0 129.5 -79.5t53.5 -191.5q0 -113 -53.5 -192.5t-129.5 -79.5t-129.5 79.5t-53.5 192.5q0 112 53.5 191.5t129.5 79.5zM245 9q44 5 69 83t12 182q-13 103 -56.5 175t-88.5 67q-44 -5 -69 -83t-12 -181q13 -104 56.5 -176t88.5 -67z" glyph-name="o" horiz-adv-x="427" unicode="o"/><glyph d="M381 310q0 -123 -78 -218t-200 -101v-166h-73v659q49 10 73 41v-63q39 63 105 63q78 0 125.5 -63t47.5 -152zM103 3q110 6 158 86t48 200q0 29 -6 61.5t-19 67t-38 56.5t-57 22q-54 0 -86 -58v-435z" glyph-name="p" horiz-adv-x="411" unicode="p"/><glyph d="M308 525h73v-700h-73v238q-42 -72 -105 -72q-77 0 -125 67t-48 157q0 123 78 213.5t200 96.5zM222 20q50 0 86 68v425q-111 -6 -158.5 -82t-47.5 -194q0 -40 10 -86.5t39 -88.5t71 -42z" glyph-name="q" horiz-adv-x="411" unicode="q"/><glyph d="M279 525l21 -73q-22 6 -41 6q-121 0 -156 -243v-215h-73v484q49 10 73 41v-242q21 117 61 179.5t115 62.5z" glyph-name="r" horiz-adv-x="331" unicode="r"/><glyph d="M31 159l82 39q-8 -47 -9 -90t19 -74t59 -31q32 0 59 22t27 73q0 33 -21 66t-51 61.5t-60 58.5t-51 68.5t-21 79.5q0 47 28 74.5t83 27.5q74 0 120 -31l-21 -73q-13 30 -49.5 60t-74.5 30q-21 0 -40.5 -13.5t-19.5 -42.5q0 -30 22 -59.5t54 -56.5t64 -57.5t54 -73.5 t22 -93q0 -70 -39 -101.5t-95 -31.5q-64 0 -104.5 51t-36.5 117z" glyph-name="s" horiz-adv-x="336" unicode="s"/><glyph d="M227 45l7 -24q-30 -30 -68 -30q-29 0 -49 13t-31.5 32.5t-17.5 52.5t-7.5 61.5t-1.5 70.5v292h-29q26 12 53 47.5t39 75.5h10v-111h102l-10 -36q-14 24 -68 24h-24v-286q0 -115 8.5 -164.5t28.5 -56.5q17 -5 34 7t24 32z" glyph-name="t" horiz-adv-x="265" unicode="t"/><glyph d="M274 525h73v-525h-73v34q-31 -34 -83 -34q-67 0 -114 44.5t-47 118.5q0 52 23.5 131.5t23.5 120.5q0 84 -47 110h88q32 -37 32 -96q0 -43 -24 -128t-24 -135q0 -63 21.5 -108.5t69.5 -45.5q51 0 81 41v472z" glyph-name="u" horiz-adv-x="378" unicode="u"/><glyph d="M98 525q30 -40 38 -98t-1 -133q-15 -179 73 -270q0 -1 -2 -3l9 -8l2 2l-9 9q44 62 71 149t24.5 184.5t-43.5 167.5h78q25 -61 24.5 -128t-24 -140.5t-54.5 -133.5t-67 -108q5 -5 17 -15h-72q-57 46 -81.5 111t-18.5 173q6 106 -2 150.5t-40 90.5h78z" glyph-name="v" horiz-adv-x="383" unicode="v"/><glyph d="M577 525q26 -61 25 -128.5t-24 -140t-54.5 -133t-67.5 -107.5q6 -6 18 -16h-73q-79 65 -95 169q-39 -86 -89 -153q5 -6 17 -16h-72q-57 46 -81.5 111t-18.5 173q6 106 -2 150.5t-40 90.5h78q30 -40 38 -98t-1 -133q-15 -179 73 -270q36 51 61.5 121.5t32.5 145.5 q8 73 0.5 128.5t-42.5 105.5h77q30 -40 37.5 -93.5t0.5 -137.5q-15 -181 73 -270q44 62 71 149t24.5 184.5t-43.5 167.5h77z" glyph-name="w" horiz-adv-x="623" unicode="w"/><glyph d="M240 0l-105 250q-24 -41 -34.5 -81.5t-10 -67t8.5 -52t13 -33.5l10 -16h-95q-20 102 103 263l-110 262h78l85 -203q26 39 40 74t16 56t-2 39t-7.5 23.5t-7.5 10.5h95q0 -60 -128 -216l129 -309h-78z" glyph-name="x" horiz-adv-x="338" unicode="x"/><glyph d="M338 525q19 -50 25.5 -100t-1.5 -100.5t-17.5 -89t-33 -88.5t-37 -75.5t-39.5 -71.5q-2 -4 -13.5 -25t-17 -30t-18 -28.5t-22.5 -29.5t-23.5 -21.5t-28 -17t-29.5 -5.5q-42 0 -52 43l14 62q4 -27 19.5 -44.5t40.5 -17.5q21 0 40 12t44 50q-79 59 -106 138t-21 198 q6 106 -2 150.5t-40 90.5h78q30 -40 38 -98t-1 -133q-16 -193 90 -286q41 63 64 154.5t17.5 192t-46.5 170.5h78z" glyph-name="y" horiz-adv-x="385" unicode="y"/><glyph d="M330 73v-73h-300l213 513q-170 0 -213 -61v73h297l-213 -513q173 0 216 61z" glyph-name="z" horiz-adv-x="361" unicode="z"/><glyph d="M20 350q31 0 45.5 21.5t15.5 56.5t-1.5 77t0 84t13.5 77t45 56.5t89 21.5v-13q-38 0 -54.5 -40t-18.5 -96.5t-5.5 -113.5t-24.5 -97t-65 -40q44 0 65 -42.5t23.5 -103t3.5 -121t14.5 -103t46.5 -42.5v-12q-52 0 -83 23t-40.5 60t-10.5 81.5t2 89t2 81.5t-15.5 60 t-46.5 23v12z" glyph-name="braceleft" horiz-adv-x="247" unicode="{"/><glyph d="M32 -80h-12v829h12v-829z" glyph-name="bar" horiz-adv-x="53" unicode="|"/><glyph d="M227 350v-12q-32 0 -46.5 -23t-15.5 -60t2 -81.5t2 -89t-10.5 -81.5t-40.5 -60t-83 -23v12q33 0 46.5 42.5t14 103t3 121t23.5 103t65 42.5q-44 0 -64.5 40t-24 97t-5.5 113.5t-18.5 96.5t-54.5 40v13q64 0 99 -29t41.5 -73t7 -95t-2 -95t11.5 -73t50 -29z" glyph-name="braceright" horiz-adv-x="247" unicode="}"/><glyph d="M352 268v-14q-35 -19 -74 -19q-21 0 -87 22q-64 22 -89 22q-40 0 -73 -25l-9 -7v15q39 30 82 30q27 0 93 -24q63 -21 83 -21q39 0 74 21z" glyph-name="asciitilde" horiz-adv-x="372" unicode="~"/><glyph d="M93 489q0 -16 -10.5 -26.5t-25.5 -10.5q-16 0 -26.5 10.5t-10.5 26.5q0 15 10.5 25.5t26.5 10.5q15 0 25.5 -10.5t10.5 -25.5zM63 394l28 -533q1 -14 -9.5 -25t-24.5 -11q-15 0 -25.5 11t-9.5 25l28 533h13z" glyph-name="exclamdown" horiz-adv-x="113" unicode="¡"/><glyph d="M295 28q-43 -37 -92 -37q-3 0 -8 0.5t-7 0.5v-79h-12v81q-67 15 -111.5 91.5t-44.5 177.5t44.5 177.5t111.5 91.5v81h12v-79q2 0 7 0.5t8 0.5q49 0 92 -37l-21 -67q-34 77 -86 85v-489q24 -20 47 -18q30 4 52 46zM91 252q17 -142 85 -214v479h-5q-44 -5 -68.5 -83.5 t-11.5 -181.5z" glyph-name="cent" horiz-adv-x="316" unicode="¢"/><glyph d="M86 74q245 0 291 40v-114h-357l52 74q88 124 55 270h-54v12h52q-10 40 -39.5 106.5t-36.5 96.5q-14 59 28.5 100t103.5 41q74 0 123 -50t51 -116l-83 -26q16 63 -8.5 121.5t-82.5 58.5q-43 0 -58.5 -38t3.5 -94q4 -11 15.5 -40.5t18.5 -49.5t15 -51t11 -59h111v-12h-110 q13 -145 -101 -270z" glyph-name="sterling" horiz-adv-x="398" unicode="£"/><glyph d="M338 263q0 -55 -37 -97l63 -49l-26 -26l-49 63q-42 -37 -97 -37t-97 37l-49 -63l-26 26l63 49q-37 42 -37 97t37 97l-63 49l26 26l49 -63q42 37 97 37t97 -37l49 63l26 -26l-63 -49q37 -42 37 -97zM192 129q56 0 95 39.5t39 94.5t-39 94.5t-95 39.5t-95 -39.5t-39 -94.5 t39 -94.5t95 -39.5z" glyph-name="currency" horiz-adv-x="384" unicode="¤"/><glyph d="M374 700q17 -36 17 -82.5t-13 -91.5t-35 -93t-45 -85t-47 -70h84v-12h-86v-61h86v-13h-86v-192h-73v192h-86v13h86v61h-86v12h79q-51 45 -80 96t-25 129q5 86 -1.5 123t-32.5 74h75q25 -32 31.5 -79.5t-0.5 -108.5q-5 -56 11.5 -104t37 -73.5t53.5 -54.5q37 52 62.5 126 t29.5 153.5t-31 140.5h75z" glyph-name="yen" horiz-adv-x="422" unicode="¥"/><glyph d="M32 535h-12v294h12v-294zM20 293h12v-293h-12v293z" glyph-name="brokenbar" horiz-adv-x="53" unicode="¦"/><glyph d="M263 348q0 -69 -44 -103q44 -52 44 -117q0 -62 -35 -95t-83 -33q-57 0 -92.5 45t-32.5 104l55 26q-13 -65 6.5 -115.5t72.5 -50.5q28 0 51.5 21t23.5 70q0 37 -18.5 70t-44.5 58.5t-52.5 50.5t-45 54.5t-18.5 61.5q0 37 22.5 59t60.5 26q-28 26 -42 42t-27.5 41.5 t-13.5 50.5q0 40 27 63t71 23q67 0 106 -28l-14 -48q-22 28 -54 46t-61 18q-20 0 -36 -12t-16 -38q0 -29 19.5 -55t47.5 -48t56 -46.5t47.5 -60.5t19.5 -80zM73 419q0 -31 20 -56.5t60 -58t57 -50.5q19 22 19 65q0 42 -21 75.5t-60 71.5q-12 3 -23 3q-20 0 -36 -12t-16 -38z " glyph-name="section" horiz-adv-x="284" unicode="§"/><glyph d="M57 596q0 -10 -7 -16.5t-17 -6.5t-16.5 6.5t-6.5 16.5t6.5 17t16.5 7t17 -7t7 -17zM130 596q0 -10 -7 -16.5t-17 -6.5q-9 0 -16 6.5t-7 16.5t7 17t16 7q10 0 17 -7t7 -17z" glyph-name="dieresis" horiz-adv-x="140" unicode="¨"/><glyph d="M277 695q107 0 182 -101.5t75 -245.5t-75.5 -246t-181.5 -102t-181.5 102t-75.5 246t75 245.5t182 101.5zM277 683q-101 0 -173 -98t-72 -237t72 -237.5t173 -98.5t173 98.5t72 237.5t-72 237t-173 98zM369 149l5 -18q-36 -34 -77 -34q-64 0 -108.5 73.5t-44.5 177.5 t44.5 177t108.5 73q40 0 77 -34l-15 -53q-40 78 -89 73q-43 -5 -66.5 -77.5t-12.5 -170.5q11 -93 47 -157.5t77 -67.5q6 0 9 1q29 3 45 37z" glyph-name="copyright" horiz-adv-x="554" unicode="©"/><glyph d="M122 667q0 28 -32 28q-16 0 -27.5 -8t-15.5 -17l-9 30h54q30 0 47.5 -12t17.5 -50v-155q-13 0 -22 8.5t-9 21.5q-21 -34 -50 -34q-26 0 -41 15.5t-15 38.5q0 24 16 43t35 29.5t35 26.5t16 35zM126 658q-5 -18 -18 -33t-25.5 -25t-22.5 -28t-10 -42q0 -45 29 -45 q21 0 34 20t13 51v102z" glyph-name="ordfeminine" horiz-adv-x="177" unicode="ª"/><glyph d="M370 435l-324 -172l324 -172l-6 -11l-344 183l344 183zM461 435l-324 -172l324 -172l-5 -11l-344 183l344 183z" glyph-name="guillemotleft" horiz-adv-x="482" unicode="«"/><glyph d="M20 269h245v-85h-12v73h-233v12z" glyph-name="logicalnot" horiz-adv-x="286" unicode="¬"/><glyph d="M277 695q107 0 182 -101.5t75 -245.5t-75.5 -246t-181.5 -102t-181.5 102t-75.5 246t75 245.5t182 101.5zM277 683q-101 0 -173 -98t-72 -237t72 -237.5t173 -98.5t173 98.5t72 237.5t-72 237t-173 98zM272 355q0 -10 24.5 -26t54 -31.5t54 -42.5t24.5 -57q0 -51 -21 -94 h-51q21 56 21 102q0 26 -18 50.5t-39 40t-39 31.5t-18 27q0 9 14 23t30 27.5t30 36.5t14 50q0 85 -128 91v-479h-51v488h51q31 0 58.5 -4t56.5 -13t46 -29.5t17 -49.5q0 -27 -32.5 -55.5t-65 -51t-32.5 -34.5z" glyph-name="registered" horiz-adv-x="554" unicode="®"/><glyph d="M155 573h-135v12h135v-12z" glyph-name="macron" horiz-adv-x="175" unicode="¯"/><glyph d="M105 700q35 0 60.5 -25t25.5 -60t-25.5 -60.5t-60.5 -25.5t-60 25.5t-25 60.5t25 60t60 25zM105 688q-30 0 -51.5 -21.5t-21.5 -51.5q0 -31 21.5 -52t51.5 -21q31 0 52.5 21t21.5 52q0 30 -21.5 51.5t-52.5 21.5z" glyph-name="degree" horiz-adv-x="211" unicode="°"/><glyph d="M396 301v-12h-182v-224h-12v224h-182v12h182v224h12v-224h182zM396 12v-12h-376v12h376z" glyph-name="plusminus" horiz-adv-x="416" unicode="±"/><glyph d="M207 343v-69h-181l30 38q71 92 107 209q18 57 1.5 114.5t-53.5 57.5q-35 0 -44 -37.5t3 -72.5l-50 16q2 43 24.5 72t66.5 29q58 0 89 -49t7 -123q-27 -79 -137 -209q104 -4 137 24z" glyph-name="uni00B2" horiz-adv-x="237" unicode="²"/><glyph d="M227 417q0 -78 -30.5 -110.5t-69.5 -32.5q-50 0 -78.5 44.5t-28.5 97.5h46q0 -54 22 -93t52 -39q23 0 43 23q26 38 16.5 88.5t-40.5 94t-56 43.5l-5 22q48 -25 69 21q19 40 2 82q-14 35 -44 35q-31 0 -40 -34.5t1 -75.5l-48 16q0 45 25 73t62 28q39 0 66 -21.5t27 -58.5 q0 -30 -25 -52.5t-60 -28.5q45 0 69.5 -37.5t24.5 -84.5z" glyph-name="uni00B3" horiz-adv-x="248" unicode="³"/><glyph d="M107 651l-85 -78h-12l46 72q4 6 13 6h38z" glyph-name="acute" horiz-adv-x="117" unicode="´"/><glyph d="M167 700h95v-700h-12v688h-71v-688h-12v406q-61 0 -104 43t-43 104t43 104t104 43z" glyph-name="paragraph" horiz-adv-x="282" unicode="¶"/><glyph d="M93 264q0 -16 -10.5 -26.5t-25.5 -10.5q-16 0 -26.5 10.5t-10.5 26.5q0 15 10.5 25.5t26.5 10.5q15 0 25.5 -10.5t10.5 -25.5z" glyph-name="periodcentered" horiz-adv-x="113" unicode="·"/><glyph d="M16 -76q10 -10 24 -10q11 0 18.5 7t7.5 19t-8 19t-20 7l29 41l7 -4l-20 -30q16 -1 27 -10.5t11 -25.5q0 -18 -12 -28t-31 -10q-23 0 -39 18z" glyph-name="cedilla" horiz-adv-x="103" unicode="¸"/><glyph d="M45 274v382q0 19 -25 19l69 25v-426h-44z" glyph-name="uni00B9" horiz-adv-x="109" unicode="¹"/><glyph d="M97 700q32 0 54 -33t22 -79q0 -47 -22 -80t-54 -33t-54 33t-22 80q0 46 22 79t54 33zM110 483q18 2 28.5 34t5.5 75q-6 43 -24 73t-36 28q-19 -2 -29 -34.5t-5 -75.5t23.5 -72.5t36.5 -27.5z" glyph-name="ordmasculine" horiz-adv-x="193" unicode="º"/><glyph d="M112 435l5 11l344 -183l-344 -183l-5 11l324 172zM20 435l6 11l344 -183l-344 -183l-6 11l324 172z" glyph-name="guillemotright" horiz-adv-x="482" unicode="»"/><glyph d="M74 0h-12l246 700h13zM45 274v382q0 19 -25 19l69 25v-426h-44zM381 350q29 5 44 25v-375h-44v155h-139q2 1 5 3.5t4 3.5q25 24 35.5 71.5t7 92t-14.5 73.5l9 4q8 4 18.5 10.5t17.5 12.5q12 -90 -11.5 -165t-51.5 -99h120v188z" glyph-name="onequarter" horiz-adv-x="445" unicode="¼"/><glyph d="M74 0h-12l246 700h13zM45 274v382q0 19 -25 19l69 25v-426h-44zM454 70v-70h-181l31 39q70 90 107 208q18 58 1.5 115t-54.5 57q-34 0 -43.5 -37.5t2.5 -72.5l-50 16q2 43 24.5 72t66.5 29q58 0 89 -48.5t7 -123.5t-136 -209q104 -4 136 25z" glyph-name="onehalf" horiz-adv-x="484" unicode="½"/><glyph d="M161 0h-12l246 700h13zM227 417q0 -78 -30.5 -110.5t-69.5 -32.5q-50 0 -78.5 44.5t-28.5 97.5h46q0 -54 22 -93t52 -39q23 0 43 23q26 38 16.5 88.5t-40.5 94t-56 43.5l-5 22q48 -25 69 21q19 40 2 82q-14 35 -44 35q-31 0 -40 -34.5t1 -75.5l-48 16q0 45 25 73t62 28 q39 0 66 -21.5t27 -58.5q0 -30 -25 -52.5t-60 -28.5q45 0 69.5 -37.5t24.5 -84.5zM455 350q30 5 45 25v-375h-45v155h-138q2 1 5 3.5t4 3.5q25 24 35.5 71.5t7 92t-14.5 73.5l8 4q9 4 19.5 10.5t17.5 12.5q12 -90 -11.5 -165t-51.5 -99h119v188z" glyph-name="threequarters" horiz-adv-x="520" unicode="¾"/><glyph d="M167 489q0 15 10.5 25.5t25.5 10.5q16 0 26.5 -10.5t10.5 -25.5q0 -16 -10.5 -26.5t-26.5 -10.5q-15 0 -25.5 10.5t-10.5 26.5zM155 -163q58 0 82 58.5t9 122.5l82 -27q-2 -66 -50.5 -116t-122.5 -50q-61 0 -103.5 41t-28.5 100q8 33 29 66.5t45 65t47 70t38 97t15 129.5 h13q0 -101 -17.5 -176t-52 -153.5t-40.5 -95.5q-19 -55 -4 -93.5t59 -38.5z" glyph-name="questiondown" horiz-adv-x="349" unicode="¿"/><glyph d="M170 826h37q9 0 14 -6l45 -72h-12zM322 700h73v-700h-73v433q-106 -18 -217 -72q12 -33 57 -132q70 -151 73 -229h-73q1 39 -15 102q-7 24 -35 106q-58 159 -68 223q-5 34 -4 60q2 50 18 87.5t40.5 60.5t61 37t75 19t87.5 5zM77 544q-4 -17 -4 -53q1 -38 17 -87 q115 57 232 78v206q-41 0 -78.5 -6.5t-74 -21.5t-61 -45t-31.5 -71zM100 373q116 54 222 72v25q-111 -20 -228 -78q1 -3 3 -9.5t3 -9.5z" glyph-name="Agrave" unicode="À"/><glyph d="M300 826l-84 -78h-12l46 72q4 6 13 6h37zM322 700h73v-700h-73v433q-106 -18 -217 -72q12 -33 57 -132q70 -151 73 -229h-73q1 39 -15 102q-7 24 -35 106q-58 159 -68 223q-5 34 -4 60q2 50 18 87.5t40.5 60.5t61 37t75 19t87.5 5zM77 544q-4 -17 -4 -53q1 -38 17 -87 q115 57 232 78v206q-41 0 -78.5 -6.5t-74 -21.5t-61 -45t-31.5 -71zM100 373q116 54 222 72v25q-111 -20 -228 -78q1 -3 3 -9.5t3 -9.5z" glyph-name="Aacute" unicode="Á"/><glyph d="M311 748l-57 49l-57 -49h-12l59 78h20l59 -78h-12zM322 700h73v-700h-73v433q-106 -18 -217 -72q12 -33 57 -132q70 -151 73 -229h-73q1 39 -15 102q-7 24 -35 106q-58 159 -68 223q-5 34 -4 60q2 50 18 87.5t40.5 60.5t61 37t75 19t87.5 5zM77 544q-4 -17 -4 -53 q1 -38 17 -87q115 57 232 78v206q-41 0 -78.5 -6.5t-74 -21.5t-61 -45t-31.5 -71zM100 373q116 54 222 72v25q-111 -20 -228 -78q1 -3 3 -9.5t3 -9.5z" glyph-name="Acircumflex" unicode="Â"/><glyph d="M281 749q-14 0 -36.5 15t-33.5 15q-17 0 -31 -31l-11 3q17 47 48 47q15 0 37.5 -15.5t32.5 -15.5q16 0 31 32l11 -4q-17 -46 -48 -46zM322 700h73v-700h-73v433q-106 -18 -217 -72q12 -33 57 -132q70 -151 73 -229h-73q1 39 -15 102q-7 24 -35 106q-58 159 -68 223 q-5 34 -4 60q2 50 18 87.5t40.5 60.5t61 37t75 19t87.5 5zM77 544q-4 -17 -4 -53q1 -38 17 -87q115 57 232 78v206q-41 0 -78.5 -6.5t-74 -21.5t-61 -45t-31.5 -71zM100 373q116 54 222 72v25q-111 -20 -228 -78q1 -3 3 -9.5t3 -9.5z" glyph-name="Atilde" unicode="Ã"/><glyph d="M246 771q0 -10 -7 -16.5t-17 -6.5q-9 0 -16 6.5t-7 16.5t7 17t16 7q10 0 17 -7t7 -17zM319 771q0 -10 -7 -16.5t-16 -6.5q-10 0 -17 6.5t-7 16.5t7 17t17 7q9 0 16 -7t7 -17zM322 700h73v-700h-73v433q-106 -18 -217 -72q12 -33 57 -132q70 -151 73 -229h-73 q1 39 -15 102q-7 24 -35 106q-58 159 -68 223q-5 34 -4 60q2 50 18 87.5t40.5 60.5t61 37t75 19t87.5 5zM77 544q-4 -17 -4 -53q1 -38 17 -87q115 57 232 78v206q-41 0 -78.5 -6.5t-74 -21.5t-61 -45t-31.5 -71zM100 373q116 54 222 72v25q-111 -20 -228 -78q1 -3 3 -9.5 t3 -9.5z" glyph-name="Adieresis" unicode="Ä"/><glyph d="M253 846q20 0 34.5 -14.5t14.5 -34.5t-14.5 -34.5t-34.5 -14.5t-34.5 14.5t-14.5 34.5t14.5 34.5t34.5 14.5zM253 834q-15 0 -26 -10.5t-11 -26.5q0 -15 11 -26t26 -11t26 11t11 26q0 16 -11 26.5t-26 10.5zM322 700h73v-700h-73v433q-106 -18 -217 -72q12 -33 57 -132 q70 -151 73 -229h-73q1 39 -15 102q-7 24 -35 106q-58 159 -68 223q-5 34 -4 60q2 50 18 87.5t40.5 60.5t61 37t75 19t87.5 5zM77 544q-4 -17 -4 -53q1 -38 17 -87q115 57 232 78v206q-41 0 -78.5 -6.5t-74 -21.5t-61 -45t-31.5 -71zM100 373q116 54 222 72v25 q-111 -20 -228 -78q1 -3 3 -9.5t3 -9.5z" glyph-name="Aring" unicode="Å"/><glyph d="M582 12q41 5 64 54l8 -26q-51 -49 -111 -49q-84 0 -147 93v-84h-73v433q-106 -18 -217 -72q12 -33 57 -132q70 -151 73 -229h-73q1 39 -15 102q-7 24 -35 106q-58 159 -68 223q-5 34 -4 60q6 119 79.5 164t202.5 45h73v-84q63 93 147 93q59 0 111 -49l-22 -75 q-28 52 -61 79.5t-66 23.5q-39 -4 -68 -49.5t-41 -117.5v-215q8 86 58 141.5t121 55.5l22 -73q-24 7 -50 7q-68 0 -108 -53t-33 -133q23 -103 68 -169.5t95 -70.5q9 0 13 1zM78 544q-4 -17 -4 -53q1 -38 17 -87q115 57 232 78v206q-41 0 -78.5 -6.5t-74 -21.5t-61 -45 t-31.5 -71zM101 373q116 54 222 72v25q-116 -20 -228 -78q1 -3 3 -9.5t3 -9.5z" glyph-name="AE" horiz-adv-x="684" unicode="Æ"/><glyph d="M199 -76q11 -10 24 -10q27 0 27 26q0 12 -8.5 19t-20.5 7l18 25q-87 8 -147.5 111.5t-60.5 247.5q0 149 64.5 254t155.5 105q59 0 110 -49l-21 -75q-59 112 -128 103q-62 -7 -95 -111t-17 -244q15 -133 66 -225t111 -97q8 0 12 1q40 5 65 54l7 -26q-51 -49 -112 -49 l-12 -18q16 -1 27.5 -10.5t11.5 -25.5q0 -17 -12.5 -27.5t-30.5 -10.5q-23 0 -39 18z" glyph-name="Ccedilla" horiz-adv-x="392" unicode="Ç"/><glyph d="M147 826h38q9 0 13 -6l46 -72h-12zM288 12q40 5 65 54l7 -26q-49 -49 -110 -49q-91 0 -155.5 105t-64.5 254t64.5 254t155.5 105q59 0 110 -49l-21 -75q-59 112 -128 103q-62 -7 -95 -111t-17 -244l3 -27q8 86 58.5 141.5t121.5 55.5l21 -73q-24 7 -50 7 q-68 0 -107.5 -52.5t-33.5 -133.5q24 -103 69 -169.5t95 -70.5q8 0 12 1z" glyph-name="Egrave" horiz-adv-x="391" unicode="È"/><glyph d="M288 826l-85 -78h-12l46 72q5 6 13 6h38zM288 12q40 5 65 54l7 -26q-49 -49 -110 -49q-91 0 -155.5 105t-64.5 254t64.5 254t155.5 105q59 0 110 -49l-21 -75q-59 112 -128 103q-62 -7 -95 -111t-17 -244l3 -27q8 86 58.5 141.5t121.5 55.5l21 -73q-24 7 -50 7 q-68 0 -107.5 -52.5t-33.5 -133.5q24 -103 69 -169.5t95 -70.5q8 0 12 1z" glyph-name="Eacute" horiz-adv-x="391" unicode="É"/><glyph d="M290 748l-57 49l-57 -49h-13l59 78h21l59 -78h-12zM288 12q40 5 65 54l7 -26q-49 -49 -110 -49q-91 0 -155.5 105t-64.5 254t64.5 254t155.5 105q59 0 110 -49l-21 -75q-59 112 -128 103q-62 -7 -95 -111t-17 -244l3 -27q8 86 58.5 141.5t121.5 55.5l21 -73q-24 7 -50 7 q-68 0 -107.5 -52.5t-33.5 -133.5q24 -103 69 -169.5t95 -70.5q8 0 12 1z" glyph-name="Ecircumflex" horiz-adv-x="391" unicode="Ê"/><glyph d="M229 771q0 -10 -6.5 -16.5t-16.5 -6.5t-16.5 6.5t-6.5 16.5t6.5 17t16.5 7t16.5 -7t6.5 -17zM302 771q0 -10 -6.5 -16.5t-16.5 -6.5t-16.5 6.5t-6.5 16.5t6.5 17t16.5 7t16.5 -7t6.5 -17zM288 12q40 5 65 54l7 -26q-49 -49 -110 -49q-91 0 -155.5 105t-64.5 254t64.5 254 t155.5 105q59 0 110 -49l-21 -75q-59 112 -128 103q-62 -7 -95 -111t-17 -244l3 -27q8 86 58.5 141.5t121.5 55.5l21 -73q-24 7 -50 7q-68 0 -107.5 -52.5t-33.5 -133.5q24 -103 69 -169.5t95 -70.5q8 0 12 1z" glyph-name="Edieresis" horiz-adv-x="391" unicode="Ë"/><glyph d="M18 826h38q8 0 13 -6l46 -72h-12zM103 0h-73v700h73v-700z" glyph-name="Igrave" horiz-adv-x="133" unicode="Ì"/><glyph d="M115 826l-85 -78h-12l46 72q5 6 13 6h38zM103 0h-73v700h73v-700z" glyph-name="Iacute" horiz-adv-x="133" unicode="Í"/><glyph d="M124 748l-57 49l-57 -49h-13l59 78h21l59 -78h-12zM103 0h-73v700h73v-700z" glyph-name="Icircumflex" horiz-adv-x="133" unicode="Î"/><glyph d="M60 771q0 -10 -6.5 -16.5t-16.5 -6.5t-16.5 6.5t-6.5 16.5t6.5 17t16.5 7t16.5 -7t6.5 -17zM133 771q0 -10 -6.5 -16.5t-16.5 -6.5t-16.5 6.5t-6.5 16.5t6.5 17t16.5 7t16.5 -7t6.5 -17zM103 0h-73v700h73v-700z" glyph-name="Idieresis" horiz-adv-x="133" unicode="Ï"/><glyph d="M132 700q76 0 135.5 -30.5t94 -80.5t52 -108t17.5 -119q0 -49 -10.5 -98t-34 -97t-57.5 -85t-85 -59.5t-112 -22.5h-73v344h-29v12h29v344h73zM132 12q51 0 90.5 18.5t63 51.5t39 68.5t22.5 79.5t9 72.5t2 59.5q0 326 -226 326v-332h100v-12h-100v-332z" glyph-name="Eth" horiz-adv-x="461" unicode="Ð"/><glyph d="M246 749q-14 0 -36.5 15t-33.5 15q-17 0 -31 -31l-11 3q17 47 48 47q15 0 37.5 -15.5t32.5 -15.5q16 0 31 32l11 -4q-17 -46 -48 -46zM398 700v-700h-12q-54 0 -94 70t-64 170.5t-47 201t-57.5 172.5t-81.5 74q0 -311 83 -688h-95v700h12q64 0 109.5 -38t68.5 -98.5 t37.5 -134t23.5 -147t19.5 -134t31.5 -98.5t54 -38v376q0 70 -8 127.5t-18 89t-24 55t-20 30t-12 10.5h94z" glyph-name="Ntilde" horiz-adv-x="428" unicode="Ñ"/><glyph d="M202 826h37q9 0 14 -6l45 -72h-12zM250 709q91 0 155.5 -105.5t64.5 -253.5t-64.5 -253.5t-155.5 -105.5t-155.5 105t-64.5 254t64.5 254t155.5 105zM288 12q63 7 96 111t17 244t-71.5 234t-118.5 87q-62 -7 -95 -111t-17 -244t71.5 -234.5t117.5 -86.5z" glyph-name="Ograve" horiz-adv-x="500" unicode="Ò"/><glyph d="M298 826l-84 -78h-12l46 72q4 6 13 6h37zM250 709q91 0 155.5 -105.5t64.5 -253.5t-64.5 -253.5t-155.5 -105.5t-155.5 105t-64.5 254t64.5 254t155.5 105zM288 12q63 7 96 111t17 244t-71.5 234t-118.5 87q-62 -7 -95 -111t-17 -244t71.5 -234.5t117.5 -86.5z" glyph-name="Oacute" horiz-adv-x="500" unicode="Ó"/><glyph d="M307 748l-57 49l-57 -49h-12l59 78h20l59 -78h-12zM250 709q91 0 155.5 -105.5t64.5 -253.5t-64.5 -253.5t-155.5 -105.5t-155.5 105t-64.5 254t64.5 254t155.5 105zM288 12q63 7 96 111t17 244t-71.5 234t-118.5 87q-62 -7 -95 -111t-17 -244t71.5 -234.5t117.5 -86.5z " glyph-name="Ocircumflex" horiz-adv-x="500" unicode="Ô"/><glyph d="M282 749q-14 0 -36.5 15t-33.5 15q-17 0 -31 -31l-11 3q17 47 48 47q15 0 37.5 -15.5t32.5 -15.5q16 0 31 32l11 -4q-17 -46 -48 -46zM250 709q91 0 155.5 -105.5t64.5 -253.5t-64.5 -253.5t-155.5 -105.5t-155.5 105t-64.5 254t64.5 254t155.5 105zM288 12q63 7 96 111 t17 244t-71.5 234t-118.5 87q-62 -7 -95 -111t-17 -244t71.5 -234.5t117.5 -86.5z" glyph-name="Otilde" horiz-adv-x="500" unicode="Õ"/><glyph d="M244 771q0 -10 -7 -16.5t-17 -6.5q-9 0 -16 6.5t-7 16.5t7 17t16 7q10 0 17 -7t7 -17zM317 771q0 -10 -7 -16.5t-16 -6.5q-10 0 -17 6.5t-7 16.5t7 17t17 7q9 0 16 -7t7 -17zM250 709q91 0 155.5 -105.5t64.5 -253.5t-64.5 -253.5t-155.5 -105.5t-155.5 105t-64.5 254 t64.5 254t155.5 105zM288 12q63 7 96 111t17 244t-71.5 234t-118.5 87q-62 -7 -95 -111t-17 -244t71.5 -234.5t117.5 -86.5z" glyph-name="Odieresis" horiz-adv-x="500" unicode="Ö"/><glyph d="M396 85l-8 -9l-180 180l-179 -180l-9 9l180 179l-180 180l9 8l179 -179l180 179l8 -8l-179 -180z" glyph-name="multiply" horiz-adv-x="417" unicode="×"/><glyph d="M370 660q46 -49 73 -128.5t27 -172.5q0 -148 -64.5 -253.5t-155.5 -105.5q-59 0 -111 49l-17 -46h-13l21 55q-46 49 -73 128.5t-27 172.5q0 149 64.5 254t155.5 105q59 0 111 -49l17 46h13zM99 342q13 -122 58 -211l178 470q-57 104 -124 96q-62 -7 -95 -111t-17 -244z M288 21q63 7 96 111t17 244q-13 119 -59 211l-177 -470q57 -104 123 -96z" glyph-name="Oslash" horiz-adv-x="500" unicode="Ø"/><glyph d="M169 826h38q9 0 13 -6l46 -72h-12zM332 700h73v-700h-73v46q-41 -46 -112 -46q-86 0 -138 58t-52 160q0 68 31.5 174.5t31.5 161.5q0 58 -18.5 95t-44.5 51h93q43 -49 43 -128q0 -58 -32 -171.5t-32 -179.5q0 -53 10 -97t38.5 -78t72.5 -34q68 0 109 52v636z" glyph-name="Ugrave" unicode="Ù"/><glyph d="M266 826l-85 -78h-12l46 72q4 6 13 6h38zM332 700h73v-700h-73v46q-41 -46 -112 -46q-86 0 -138 58t-52 160q0 68 31.5 174.5t31.5 161.5q0 58 -18.5 95t-44.5 51h93q43 -49 43 -128q0 -58 -32 -171.5t-32 -179.5q0 -53 10 -97t38.5 -78t72.5 -34q68 0 109 52v636z" glyph-name="Uacute" unicode="Ú"/><glyph d="M295 748l-57 49l-57 -49h-13l59 78h21l59 -78h-12zM332 700h73v-700h-73v46q-41 -46 -112 -46q-86 0 -138 58t-52 160q0 68 31.5 174.5t31.5 161.5q0 58 -18.5 95t-44.5 51h93q43 -49 43 -128q0 -58 -32 -171.5t-32 -179.5q0 -53 10 -97t38.5 -78t72.5 -34q68 0 109 52 v636z" glyph-name="Ucircumflex" unicode="Û"/><glyph d="M223 771q0 -10 -6.5 -16.5t-16.5 -6.5t-16.5 6.5t-6.5 16.5t6.5 17t16.5 7t16.5 -7t6.5 -17zM296 771q0 -10 -6.5 -16.5t-16.5 -6.5t-16.5 6.5t-6.5 16.5t6.5 17t16.5 7t16.5 -7t6.5 -17zM332 700h73v-700h-73v46q-41 -46 -112 -46q-86 0 -138 58t-52 160 q0 68 31.5 174.5t31.5 161.5q0 58 -18.5 95t-44.5 51h93q43 -49 43 -128q0 -58 -32 -171.5t-32 -179.5q0 -53 10 -97t38.5 -78t72.5 -34q68 0 109 52v636z" glyph-name="Udieresis" unicode="Ü"/><glyph d="M254 826l-84 -78h-12l46 72q4 6 13 6h37zM402 700q41 -86 -9.5 -217t-130.5 -217v-266h-73v266q-60 41 -93.5 91t-33.5 130q0 18 2 56t1.5 56t-9 47t-26.5 54h73q25 -32 31.5 -79.5t-0.5 -108.5q-5 -63 18 -108.5t105 -125.5q67 74 93.5 200.5t-21.5 221.5h73z" glyph-name="Yacute" horiz-adv-x="450" unicode="Ý"/><glyph d="M103 602q44 0 85 -5t85.5 -18.5t71 -42.5t26.5 -71q0 -32 -26 -65.5t-64 -64.5t-76 -63t-67.5 -73.5t-34.5 -83.5v-115h-73v700h73v-98zM103 163q15 37 49.5 78t65.5 70.5t55.5 69.5t24.5 78q0 121 -195 131v-427z" glyph-name="Thorn" horiz-adv-x="401" unicode="Þ"/><glyph d="M220 385q0 -15 31.5 -41t69 -51.5t69 -65.5t31.5 -80q0 -36 -20.5 -64t-55.5 -44t-73 -25.5t-83 -13.5v12q159 20 159 135q0 39 -22 79t-48 66t-48 52t-22 41q0 14 12 30t27 30.5t27 44t12 67.5q0 114 -157 129q-10 1 -18 -6t-8 -18v-589q0 -30 -21.5 -51.5t-51.5 -21.5 v627q0 29 19.5 50t48.5 23q44 0 84 -5t82.5 -18.5t68 -42.5t25.5 -71q0 -30 -21.5 -59t-47.5 -47t-47.5 -38t-21.5 -34z" glyph-name="germandbls" horiz-adv-x="452" unicode="ß"/><glyph d="M147 651h37q10 0 14 -6l45 -72h-12zM275 444q0 14 -2 22q-9 26 -26.5 36.5t-48.5 10.5q-38 0 -65.5 -19t-37.5 -42l-22 73h131q33 0 56.5 -5t48 -19t37.5 -46t13 -80v-375q-30 0 -51.5 21.5t-21.5 51.5q-51 -82 -122 -82q-61 0 -97.5 37.5t-36.5 93.5q0 40 18 74t45.5 56 t59 45t59 42t45.5 46.5t18 58.5zM286 423q-8 -30 -25.5 -56.5t-37 -43.5t-41.5 -38.5t-39 -42t-28.5 -53.5t-11.5 -73q0 -51 17.5 -81t51.5 -30q52 0 83 49t31 124v245z" glyph-name="agrave" horiz-adv-x="390" unicode="à"/><glyph d="M243 651l-84 -78h-12l46 72q5 6 13 6h37zM275 444q0 14 -2 22q-9 26 -26.5 36.5t-48.5 10.5q-38 0 -65.5 -19t-37.5 -42l-22 73h131q33 0 56.5 -5t48 -19t37.5 -46t13 -80v-375q-30 0 -51.5 21.5t-21.5 51.5q-51 -82 -122 -82q-61 0 -97.5 37.5t-36.5 93.5q0 40 18 74 t45.5 56t59 45t59 42t45.5 46.5t18 58.5zM286 423q-8 -30 -25.5 -56.5t-37 -43.5t-41.5 -38.5t-39 -42t-28.5 -53.5t-11.5 -73q0 -51 17.5 -81t51.5 -30q52 0 83 49t31 124v245z" glyph-name="aacute" horiz-adv-x="390" unicode="á"/><glyph d="M252 573l-57 49l-57 -49h-12l59 78h20l59 -78h-12zM275 444q0 14 -2 22q-9 26 -26.5 36.5t-48.5 10.5q-38 0 -65.5 -19t-37.5 -42l-22 73h131q33 0 56.5 -5t48 -19t37.5 -46t13 -80v-375q-30 0 -51.5 21.5t-21.5 51.5q-51 -82 -122 -82q-61 0 -97.5 37.5t-36.5 93.5 q0 40 18 74t45.5 56t59 45t59 42t45.5 46.5t18 58.5zM286 423q-8 -30 -25.5 -56.5t-37 -43.5t-41.5 -38.5t-39 -42t-28.5 -53.5t-11.5 -73q0 -51 17.5 -81t51.5 -30q52 0 83 49t31 124v245z" glyph-name="acircumflex" horiz-adv-x="390" unicode="â"/><glyph d="M227 574q-14 0 -36.5 15t-33.5 15q-17 0 -31 -31l-11 3q17 47 48 47q15 0 37.5 -15.5t32.5 -15.5q16 0 31 32l11 -4q-17 -46 -48 -46zM275 444q0 14 -2 22q-9 26 -26.5 36.5t-48.5 10.5q-38 0 -65.5 -19t-37.5 -42l-22 73h131q33 0 56.5 -5t48 -19t37.5 -46t13 -80v-375 q-30 0 -51.5 21.5t-21.5 51.5q-51 -82 -122 -82q-61 0 -97.5 37.5t-36.5 93.5q0 40 18 74t45.5 56t59 45t59 42t45.5 46.5t18 58.5zM286 423q-8 -30 -25.5 -56.5t-37 -43.5t-41.5 -38.5t-39 -42t-28.5 -53.5t-11.5 -73q0 -51 17.5 -81t51.5 -30q52 0 83 49t31 124v245z" glyph-name="atilde" horiz-adv-x="390" unicode="ã"/><glyph d="M189 596q0 -10 -7 -16.5t-17 -6.5q-9 0 -16 6.5t-7 16.5t7 17t16 7q10 0 17 -7t7 -17zM262 596q0 -10 -7 -16.5t-16 -6.5q-10 0 -17 6.5t-7 16.5t7 17t17 7q9 0 16 -7t7 -17zM275 444q0 14 -2 22q-9 26 -26.5 36.5t-48.5 10.5q-38 0 -65.5 -19t-37.5 -42l-22 73h131 q33 0 56.5 -5t48 -19t37.5 -46t13 -80v-375q-30 0 -51.5 21.5t-21.5 51.5q-51 -82 -122 -82q-61 0 -97.5 37.5t-36.5 93.5q0 40 18 74t45.5 56t59 45t59 42t45.5 46.5t18 58.5zM286 423q-8 -30 -25.5 -56.5t-37 -43.5t-41.5 -38.5t-39 -42t-28.5 -53.5t-11.5 -73 q0 -51 17.5 -81t51.5 -30q52 0 83 49t31 124v245z" glyph-name="adieresis" horiz-adv-x="390" unicode="ä"/><glyph d="M195 671q20 0 34.5 -14.5t14.5 -34.5t-14.5 -34.5t-34.5 -14.5t-34.5 14.5t-14.5 34.5t14.5 34.5t34.5 14.5zM195 659q-15 0 -26 -10.5t-11 -26.5q0 -15 11 -26t26 -11t26 11t11 26q0 16 -11 26.5t-26 10.5zM275 444q0 14 -2 22q-9 26 -26.5 36.5t-48.5 10.5 q-38 0 -65.5 -19t-37.5 -42l-22 73h131q33 0 56.5 -5t48 -19t37.5 -46t13 -80v-375q-30 0 -51.5 21.5t-21.5 51.5q-51 -82 -122 -82q-61 0 -97.5 37.5t-36.5 93.5q0 40 18 74t45.5 56t59 45t59 42t45.5 46.5t18 58.5zM286 423q-8 -30 -25.5 -56.5t-37 -43.5t-41.5 -38.5 t-39 -42t-28.5 -53.5t-11.5 -73q0 -51 17.5 -81t51.5 -30q52 0 83 49t31 124v245z" glyph-name="aring" horiz-adv-x="390" unicode="å"/><glyph d="M503 8q33 0 56 46l9 -27q-42 -36 -92 -36q-41 0 -79 26t-86 88q-59 -114 -147 -114q-61 0 -97.5 37.5t-36.5 93.5q0 40 18 74t45.5 55.5t59 45t59 42.5t45.5 46.5t18 58.5q0 14 -2 22q-9 26 -26.5 36.5t-48.5 10.5q-38 0 -65.5 -19t-37.5 -42l-22 73h131q115 0 143 -74 q57 83 144 83q64 0 82 -51q24 -70 -61 -177q-50 -65 -135 -131q21 -74 56.5 -120.5t69.5 -46.5zM450 511q-33 0 -55 -33t-27.5 -76.5t-8 -86.5t2.5 -64q4 -33 12 -63q112 95 131 205q12 74 -23 106q-14 12 -32 12zM286 422q-9 -35 -31.5 -64.5t-47.5 -51t-49 -46t-39.5 -61 t-15.5 -84.5q0 -51 17.5 -80.5t51.5 -29.5q52 0 83 49t31 124v244z" glyph-name="ae" horiz-adv-x="608" unicode="æ"/><glyph d="M157 -76q11 -10 25 -10q11 0 18.5 7t7.5 19t-8 19t-20 7l18 26q-70 9 -118.5 87t-48.5 184q0 112 53.5 191.5t129.5 79.5q50 0 92 -36l-21 -68q-20 45 -47.5 67t-55.5 19q-44 -5 -68.5 -83t-11.5 -181q13 -101 54 -172t85 -71q35 0 57 46l8 -27q-41 -37 -98 -37l-12 -18 q16 -1 27 -10.5t11 -25.5q0 -18 -12 -28t-31 -10q-23 0 -39 18z" glyph-name="ccedilla" horiz-adv-x="337" unicode="ç"/><glyph d="M124 651h38q8 0 13 -6l46 -72h-12zM240 9q35 0 57 46l8 -27q-42 -37 -92 -37q-76 0 -129.5 79.5t-53.5 192.5q0 61 20.5 120.5t67.5 105t111 45.5q63 0 81 -50q24 -70 -60 -177q-50 -64 -135 -131q20 -73 55 -120t70 -47zM187 512q-33 0 -55 -33t-27.5 -76.5t-8 -86.5 t2.5 -64q4 -32 12 -64q113 96 131 207q12 73 -23 105q-14 12 -32 12z" glyph-name="egrave" horiz-adv-x="345" unicode="è"/><glyph d="M256 651l-85 -78h-12l46 72q5 6 13 6h38zM240 9q35 0 57 46l8 -27q-42 -37 -92 -37q-76 0 -129.5 79.5t-53.5 192.5q0 61 20.5 120.5t67.5 105t111 45.5q63 0 81 -50q24 -70 -60 -177q-50 -64 -135 -131q20 -73 55 -120t70 -47zM187 512q-33 0 -55 -33t-27.5 -76.5 t-8 -86.5t2.5 -64q4 -32 12 -64q113 96 131 207q12 73 -23 105q-14 12 -32 12z" glyph-name="eacute" horiz-adv-x="345" unicode="é"/><glyph d="M266 573l-57 49l-57 -49h-13l59 78h21l59 -78h-12zM240 9q35 0 57 46l8 -27q-42 -37 -92 -37q-76 0 -129.5 79.5t-53.5 192.5q0 61 20.5 120.5t67.5 105t111 45.5q63 0 81 -50q24 -70 -60 -177q-50 -64 -135 -131q20 -73 55 -120t70 -47zM187 512q-33 0 -55 -33 t-27.5 -76.5t-8 -86.5t2.5 -64q4 -32 12 -64q113 96 131 207q12 73 -23 105q-14 12 -32 12z" glyph-name="ecircumflex" horiz-adv-x="345" unicode="ê"/><glyph d="M194 596q0 -10 -6.5 -16.5t-16.5 -6.5t-16.5 6.5t-6.5 16.5t6.5 17t16.5 7t16.5 -7t6.5 -17zM267 596q0 -10 -6.5 -16.5t-16.5 -6.5t-16.5 6.5t-6.5 16.5t6.5 17t16.5 7t16.5 -7t6.5 -17zM240 9q35 0 57 46l8 -27q-42 -37 -92 -37q-76 0 -129.5 79.5t-53.5 192.5 q0 61 20.5 120.5t67.5 105t111 45.5q63 0 81 -50q24 -70 -60 -177q-50 -64 -135 -131q20 -73 55 -120t70 -47zM187 512q-33 0 -55 -33t-27.5 -76.5t-8 -86.5t2.5 -64q4 -32 12 -64q113 96 131 207q12 73 -23 105q-14 12 -32 12z" glyph-name="edieresis" horiz-adv-x="345" unicode="ë"/><glyph d="M18 651h38q8 0 13 -6l46 -72h-12zM103 0h-73v484q49 10 73 41v-525z" glyph-name="igrave" horiz-adv-x="133" unicode="ì"/><glyph d="M115 651l-85 -78h-12l46 72q5 6 13 6h38zM103 0h-73v484q49 10 73 41v-525z" glyph-name="iacute" horiz-adv-x="133" unicode="í"/><glyph d="M124 573l-57 49l-57 -49h-13l59 78h21l59 -78h-12zM103 0h-73v484q49 10 73 41v-525z" glyph-name="icircumflex" horiz-adv-x="133" unicode="î"/><glyph d="M60 596q0 -10 -6.5 -16.5t-16.5 -6.5t-16.5 6.5t-6.5 16.5t6.5 17t16.5 7t16.5 -7t6.5 -17zM133 596q0 -10 -6.5 -16.5t-16.5 -6.5t-16.5 6.5t-6.5 16.5t6.5 17t16.5 7t16.5 -7t6.5 -17zM103 0h-73v484q49 10 73 41v-525z" glyph-name="idieresis" horiz-adv-x="133" unicode="ï"/><glyph d="M197 649q84 -62 141.5 -174t57.5 -221q0 -106 -54 -184.5t-129 -78.5q-76 0 -129.5 79.5t-53.5 192.5q0 112 53.5 191.5t129.5 79.5q21 0 35 -5q-18 50 -66 104l-30 -29l-8 9l29 29q-18 19 -53 49q33 -12 67 -35l30 30l8 -9zM245 9q44 5 69 83t12 182q-13 103 -56.5 175 t-88.5 67q-44 -5 -69 -83t-12 -181q13 -104 56.5 -176t88.5 -67z" glyph-name="eth" horiz-adv-x="427" unicode="ð"/><glyph d="M241 574q-14 0 -36.5 15t-33.5 15q-17 0 -31 -31l-11 3q17 47 48 47q15 0 37.5 -15.5t32.5 -15.5q16 0 31 32l11 -4q-17 -46 -48 -46zM374 525q5 -23 8.5 -56.5t5.5 -106t-14.5 -169t-51.5 -193.5h-73q29 90 45 172t19.5 133t0.5 96t-6 60t-7 26q-178 0 -198 -317v-170 h-73v484q49 10 73 41v-253q19 127 67.5 190t130.5 63h73z" glyph-name="ntilde" horiz-adv-x="418" unicode="ñ"/><glyph d="M165 651h38q9 0 13 -6l46 -72h-12zM213 534q76 0 129.5 -79.5t53.5 -191.5q0 -113 -53.5 -192.5t-129.5 -79.5t-129.5 79.5t-53.5 192.5q0 112 53.5 191.5t129.5 79.5zM245 9q44 5 69 83t12 182q-13 103 -56.5 175t-88.5 67q-44 -5 -69 -83t-12 -181q13 -104 56.5 -176 t88.5 -67z" glyph-name="ograve" horiz-adv-x="427" unicode="ò"/><glyph d="M262 651l-85 -78h-12l46 72q5 6 13 6h38zM213 534q76 0 129.5 -79.5t53.5 -191.5q0 -113 -53.5 -192.5t-129.5 -79.5t-129.5 79.5t-53.5 192.5q0 112 53.5 191.5t129.5 79.5zM245 9q44 5 69 83t12 182q-13 103 -56.5 175t-88.5 67q-44 -5 -69 -83t-12 -181 q13 -104 56.5 -176t88.5 -67z" glyph-name="oacute" horiz-adv-x="427" unicode="ó"/><glyph d="M271 573l-57 49l-57 -49h-13l59 78h21l59 -78h-12zM213 534q76 0 129.5 -79.5t53.5 -191.5q0 -113 -53.5 -192.5t-129.5 -79.5t-129.5 79.5t-53.5 192.5q0 112 53.5 191.5t129.5 79.5zM245 9q44 5 69 83t12 182q-13 103 -56.5 175t-88.5 67q-44 -5 -69 -83t-12 -181 q13 -104 56.5 -176t88.5 -67z" glyph-name="ocircumflex" horiz-adv-x="427" unicode="ô"/><glyph d="M246 574q-15 0 -37.5 15t-33.5 15q-17 0 -31 -31l-10 3q15 47 47 47q15 0 38 -15.5t33 -15.5q18 0 30 32l11 -4q-15 -46 -47 -46zM213 534q76 0 129.5 -79.5t53.5 -191.5q0 -113 -53.5 -192.5t-129.5 -79.5t-129.5 79.5t-53.5 192.5q0 112 53.5 191.5t129.5 79.5zM245 9 q44 5 69 83t12 182q-13 103 -56.5 175t-88.5 67q-44 -5 -69 -83t-12 -181q13 -104 56.5 -176t88.5 -67z" glyph-name="otilde" horiz-adv-x="427" unicode="õ"/><glyph d="M195 596q0 -10 -6.5 -16.5t-16.5 -6.5t-16.5 6.5t-6.5 16.5t6.5 17t16.5 7t16.5 -7t6.5 -17zM268 596q0 -10 -6.5 -16.5t-16.5 -6.5t-16.5 6.5t-6.5 16.5t6.5 17t16.5 7t16.5 -7t6.5 -17zM213 534q76 0 129.5 -79.5t53.5 -191.5q0 -113 -53.5 -192.5t-129.5 -79.5 t-129.5 79.5t-53.5 192.5q0 112 53.5 191.5t129.5 79.5zM245 9q44 5 69 83t12 182q-13 103 -56.5 175t-88.5 67q-44 -5 -69 -83t-12 -181q13 -104 56.5 -176t88.5 -67z" glyph-name="odieresis" horiz-adv-x="427" unicode="ö"/><glyph d="M204 342q0 -15 -10.5 -25.5t-25.5 -10.5q-16 0 -26.5 10.5t-10.5 25.5t10.5 26t26.5 11q15 0 25.5 -11t10.5 -26zM315 257h-295v12h295v-12zM204 185q0 -16 -10.5 -26.5t-25.5 -10.5q-16 0 -26.5 10.5t-10.5 26.5q0 15 10.5 25.5t26.5 10.5q15 0 25.5 -10.5t10.5 -25.5z " glyph-name="divide" horiz-adv-x="336" unicode="÷"/><glyph d="M308 504q40 -36 64 -97.5t24 -134.5q0 -113 -53.5 -192.5t-129.5 -79.5q-45 0 -85 31l-11 -31h-13l15 39q-41 37 -65 98.5t-24 134.5q0 112 53.5 191.5t129.5 79.5q44 0 85 -30l11 30h13zM100 261q10 -82 44 -154l130 343q-45 81 -93 76q-44 -5 -69 -83.5t-12 -181.5z M245 18q44 5 69 83.5t12 181.5q-11 88 -44 153l-130 -343q45 -80 93 -75z" glyph-name="oslash" horiz-adv-x="427" unicode="ø"/><glyph d="M141 651h37q10 0 14 -6l45 -72h-12zM274 525h73v-525h-73v34q-31 -34 -83 -34q-67 0 -114 44.5t-47 118.5q0 52 23.5 131.5t23.5 120.5q0 84 -47 110h88q32 -37 32 -96q0 -43 -24 -128t-24 -135q0 -63 21.5 -108.5t69.5 -45.5q51 0 81 41v472z" glyph-name="ugrave" horiz-adv-x="378" unicode="ù"/><glyph d="M237 651l-84 -78h-12l46 72q5 6 13 6h37zM274 525h73v-525h-73v34q-31 -34 -83 -34q-67 0 -114 44.5t-47 118.5q0 52 23.5 131.5t23.5 120.5q0 84 -47 110h88q32 -37 32 -96q0 -43 -24 -128t-24 -135q0 -63 21.5 -108.5t69.5 -45.5q51 0 81 41v472z" glyph-name="uacute" horiz-adv-x="378" unicode="ú"/><glyph d="M246 573l-57 49l-57 -49h-12l59 78h20l59 -78h-12zM274 525h73v-525h-73v34q-31 -34 -83 -34q-67 0 -114 44.5t-47 118.5q0 52 23.5 131.5t23.5 120.5q0 84 -47 110h88q32 -37 32 -96q0 -43 -24 -128t-24 -135q0 -63 21.5 -108.5t69.5 -45.5q51 0 81 41v472z" glyph-name="ucircumflex" horiz-adv-x="378" unicode="û"/><glyph d="M183 596q0 -10 -7 -16.5t-17 -6.5q-9 0 -16 6.5t-7 16.5t7 17t16 7q10 0 17 -7t7 -17zM256 596q0 -10 -7 -16.5t-16 -6.5q-10 0 -17 6.5t-7 16.5t7 17t17 7q9 0 16 -7t7 -17zM274 525h73v-525h-73v34q-31 -34 -83 -34q-67 0 -114 44.5t-47 118.5q0 52 23.5 131.5 t23.5 120.5q0 84 -47 110h88q32 -37 32 -96q0 -43 -24 -128t-24 -135q0 -63 21.5 -108.5t69.5 -45.5q51 0 81 41v472z" glyph-name="udieresis" horiz-adv-x="378" unicode="ü"/><glyph d="M241 651l-85 -78h-12l46 72q4 6 13 6h38zM338 525q19 -50 25.5 -100t-1.5 -100.5t-17.5 -89t-33 -88.5t-37 -75.5t-39.5 -71.5q-2 -4 -13.5 -25t-17 -30t-18 -28.5t-22.5 -29.5t-23.5 -21.5t-28 -17t-29.5 -5.5q-42 0 -52 43l14 62q4 -27 19.5 -44.5t40.5 -17.5 q21 0 40 12t44 50q-79 59 -106 138t-21 198q6 106 -2 150.5t-40 90.5h78q30 -40 38 -98t-1 -133q-16 -193 90 -286q41 63 64 154.5t17.5 192t-46.5 170.5h78z" glyph-name="yacute" horiz-adv-x="385" unicode="ý"/><glyph d="M381 310q0 -123 -78 -218t-200 -101v-166h-73v875h73v-238q39 63 105 63q78 0 125.5 -63t47.5 -152zM103 3q110 6 158 86t48 200q0 29 -6 61.5t-19 67t-38 56.5t-57 22q-54 0 -86 -58v-435z" glyph-name="thorn" horiz-adv-x="411" unicode="þ"/><glyph d="M186 596q0 -10 -6.5 -16.5t-16.5 -6.5t-16.5 6.5t-6.5 16.5t6.5 17t16.5 7t16.5 -7t6.5 -17zM259 596q0 -10 -6.5 -16.5t-16.5 -6.5t-16.5 6.5t-6.5 16.5t6.5 17t16.5 7t16.5 -7t6.5 -17zM338 525q19 -50 25.5 -100t-1.5 -100.5t-17.5 -89t-33 -88.5t-37 -75.5 t-39.5 -71.5q-2 -4 -13.5 -25t-17 -30t-18 -28.5t-22.5 -29.5t-23.5 -21.5t-28 -17t-29.5 -5.5q-42 0 -52 43l14 62q4 -27 19.5 -44.5t40.5 -17.5q21 0 40 12t44 50q-79 59 -106 138t-21 198q6 106 -2 150.5t-40 90.5h78q30 -40 38 -98t-1 -133q-16 -193 90 -286 q41 63 64 154.5t17.5 192t-46.5 170.5h78z" glyph-name="ydieresis" horiz-adv-x="385" unicode="ÿ"/><glyph d="M132 700q76 0 135.5 -30.5t94 -80.5t52 -108t17.5 -119q0 -49 -10.5 -98t-34 -97t-57.5 -85t-85 -59.5t-112 -22.5h-73v344h-29v12h29v344h73zM132 12q51 0 90.5 18.5t63 51.5t39 68.5t22.5 79.5t9 72.5t2 59.5q0 326 -226 326v-332h100v-12h-100v-332z" glyph-name="Dcroat" horiz-adv-x="461" unicode="Đ"/><glyph d="M415 595v-12h-34v-583h-73v63q-39 -63 -105 -63q-78 0 -125.5 63t-47.5 152q0 123 78 213.5t200 95.5v59h-87v12h87v64q49 10 73 41v-105h34zM308 88v424q-76 -3 -123.5 -44t-65 -98.5t-17.5 -133.5q0 -29 6 -61.5t19 -67t38 -56.5t57 -22q54 0 86 59z" glyph-name="dcroat" horiz-adv-x="446" unicode="đ"/><glyph d="M103 0h-73v484q49 10 73 41v-525z" glyph-name="dotlessi" horiz-adv-x="133" unicode="ı"/><glyph d="M143 12q155 0 197 61v-73h-270v282l-31 -33l-9 9l40 41v401h73v-325l73 76l9 -9l-82 -84v-346z" glyph-name="Lslash" horiz-adv-x="370" unicode="Ł"/><glyph d="M225 442l-61 -63v-379h-73v303l-52 -54l-9 9l61 63v338q49 10 73 41v-303l52 54z" glyph-name="lslash" horiz-adv-x="255" unicode="ł"/><glyph d="M663 12q41 5 64 54l8 -26q-51 -49 -111 -49q-58 0 -107.5 46t-79.5 124q-30 -78 -79.5 -124t-107.5 -46q-91 0 -155.5 105t-64.5 254t64.5 254t155.5 105q58 0 107.5 -46t79.5 -125q30 79 79.5 125t107.5 46q59 0 111 -49l-22 -75q-28 52 -61 79.5t-66 23.5 q-57 -6 -90 -92.5t-27 -210.5v-10q2 -28 4 -42l3 -27q8 86 58.5 141.5t121.5 55.5l21 -73q-24 7 -50 7q-68 0 -107.5 -52.5t-32.5 -133.5q23 -103 68 -169.5t95 -70.5q8 0 13 1zM288 12q63 7 96 111t17 244t-71.5 234t-118.5 87q-62 -7 -95 -111t-17 -244t71.5 -234.5 t117.5 -86.5z" glyph-name="OE" horiz-adv-x="765" unicode="Œ"/><glyph d="M540 9q34 0 56 45l9 -26q-42 -37 -92 -37q-46 0 -85.5 30.5t-64.5 83.5q-25 -53 -64 -83.5t-85 -30.5q-76 0 -129.5 79.5t-53.5 192.5q0 112 53.5 191.5t129.5 79.5q46 0 86 -31.5t65 -85.5q58 117 163 117q63 0 81 -50q25 -69 -58 -176q-51 -65 -137 -133 q21 -73 56.5 -119.5t69.5 -46.5zM246 9q39 4 64 66.5t21 151.5q0 4 -0.5 11.5t-0.5 11.5l-3 24q-13 103 -56.5 175t-88.5 67q-44 -5 -69 -83t-12 -181q13 -104 56.5 -176t88.5 -67zM486 511q-33 0 -54.5 -32.5t-27 -76t-8 -86.5t2.5 -64q5 -35 12 -64q112 95 130 205 q13 74 -23 106q-14 12 -32 12z" glyph-name="oe" horiz-adv-x="645" unicode="œ"/><glyph d="M269 826h12l-59 -78h-20l-59 78h12l57 -49zM32 213l81 39q-9 -62 -4.5 -116.5t37 -92.5t85.5 -38q42 0 77.5 31t35.5 104q0 47 -20 90t-50 74.5t-64.5 66t-64.5 64t-50 68t-20 78.5q0 60 40.5 94t105.5 34q41 0 86.5 -11.5t72.5 -30.5l-21 -72q-33 41 -80.5 68t-90.5 27 q-30 0 -54.5 -17.5t-24.5 -56.5q0 -43 29.5 -82t71 -72t83.5 -69.5t71.5 -90.5t29.5 -119q0 -94 -52.5 -143t-124.5 -49q-85 0 -138 67.5t-47 154.5z" glyph-name="Scaron" horiz-adv-x="424" unicode="Š"/><glyph d="M225 651h12l-59 -78h-20l-59 78h12l57 -49zM31 159l82 39q-8 -47 -9 -90t19 -74t59 -31q32 0 59 22t27 73q0 33 -21 66t-51 61.5t-60 58.5t-51 68.5t-21 79.5q0 47 28 74.5t83 27.5q74 0 120 -31l-21 -73q-13 30 -49.5 60t-74.5 30q-21 0 -40.5 -13.5t-19.5 -42.5 q0 -30 22 -59.5t54 -56.5t64 -57.5t54 -73.5t22 -93q0 -70 -39 -101.5t-95 -31.5q-64 0 -104.5 51t-36.5 117z" glyph-name="scaron" horiz-adv-x="336" unicode="š"/><glyph d="M200 771q0 -10 -7 -16.5t-17 -6.5q-9 0 -16 6.5t-7 16.5t7 17t16 7q10 0 17 -7t7 -17zM273 771q0 -10 -7 -16.5t-16 -6.5q-10 0 -17 6.5t-7 16.5t7 17t17 7q9 0 16 -7t7 -17zM402 700q41 -86 -9.5 -217t-130.5 -217v-266h-73v266q-60 41 -93.5 91t-33.5 130q0 18 2 56 t1.5 56t-9 47t-26.5 54h73q25 -32 31.5 -79.5t-0.5 -108.5q-5 -63 18 -108.5t105 -125.5q67 74 93.5 200.5t-21.5 221.5h73z" glyph-name="Ydieresis" horiz-adv-x="450" unicode="Ÿ"/><glyph d="M275 826h12l-59 -78h-20l-59 78h12l57 -49zM405 73v-73h-375l285 688h-104q-39 0 -71.5 -6t-51 -13.5t-33 -17.5t-18.5 -15t-7 -9v73h369l-285 -688h110q62 0 107 15.5t56.5 26t17.5 19.5z" glyph-name="Zcaron" horiz-adv-x="436" unicode="Ž"/><glyph d="M238 651h12l-59 -78h-21l-59 78h13l57 -49zM330 73v-73h-300l213 513q-170 0 -213 -61v73h297l-213 -513q173 0 216 61z" glyph-name="zcaron" horiz-adv-x="361" unicode="ž"/><glyph d="M136 573l-56 49l-58 -49h-12l59 78h20l59 -78h-12z" glyph-name="circumflex" horiz-adv-x="159" unicode="ˆ"/><glyph d="M136 651h12l-59 -78h-20l-59 78h12l58 -49z" glyph-name="caron" horiz-adv-x="159" unicode="ˇ"/><glyph d="M99 629h12q0 -19 -12 -37.5t-38 -18.5q-27 0 -39 18.5t-12 37.5h12q9 -34 39 -34q29 0 38 34z" glyph-name="breve" horiz-adv-x="122" unicode="˘"/><glyph d="M57 596q0 -10 -7 -16.5t-17 -6.5t-16.5 6.5t-6.5 16.5t6.5 17t16.5 7t17 -7t7 -17z" glyph-name="dotaccent" horiz-adv-x="67" unicode="˙"/><glyph d="M59 671q20 0 34.5 -14.5t14.5 -34.5t-14.5 -34.5t-34.5 -14.5t-34.5 14.5t-14.5 34.5t14.5 34.5t34.5 14.5zM59 659q-15 0 -26 -10.5t-11 -26.5q0 -15 11 -26t26 -11q16 0 26.5 11t10.5 26q0 16 -10.5 26.5t-26.5 10.5z" glyph-name="ring" horiz-adv-x="119" unicode="˚"/><glyph d="M46 -100q-16 0 -26 9.5t-10 25.5q0 23 20 42.5t45 30.5l4 -4q-43 -27 -43 -66q0 -23 22 -23q11 0 25 10l5 -6q-17 -19 -42 -19z" glyph-name="ogonek" horiz-adv-x="98" unicode="˛"/><glyph d="M132 574q-14 0 -36.5 15t-33.5 15q-19 0 -31 -31l-11 3q17 47 48 47q15 0 37.5 -15.5t32.5 -15.5q16 0 31 32l11 -4q-17 -46 -48 -46z" glyph-name="tilde" horiz-adv-x="200" unicode="˜"/><glyph d="M22 573h-12l46 72q4 6 13 6h38zM83 573h-12l46 72q5 6 13 6h38z" glyph-name="hungarumlaut" horiz-adv-x="179" unicode="˝"/><glyph d="M388 257h-368v12h368v-12z" glyph-name="endash" horiz-adv-x="409" unicode="–"/><glyph d="M444 257h-424v12h424v-12z" glyph-name="emdash" horiz-adv-x="465" unicode="—"/><glyph d="M57 575q-16 0 -26.5 10.5t-10.5 25.5q0 6 1.5 13.5t6 22.5t17.5 29.5t32 23.5l2 -2q-11 -7 -23 -23t-12 -30q6 3 13 3q15 0 25.5 -11t10.5 -26t-10.5 -25.5t-25.5 -10.5z" glyph-name="quoteleft" horiz-adv-x="113" unicode="‘"/><glyph d="M57 700q15 0 25.5 -10.5t10.5 -25.5q0 -62 -57 -89l-2 2q11 7 23 23t12 30q-6 -3 -12 -3q-16 0 -26.5 10.5t-10.5 26.5q0 15 10.5 25.5t26.5 10.5z" glyph-name="quoteright" horiz-adv-x="113" unicode="’"/><glyph d="M57 73q15 0 25.5 -10.5t10.5 -25.5q0 -6 -1.5 -13.5t-6 -22.5t-17.5 -29.5t-32 -23.5l-2 2q11 7 23 23t12 30q-4 -2 -12 -2q-16 0 -26.5 10.5t-10.5 25.5t10.5 25.5t26.5 10.5z" glyph-name="quotesinglbase" horiz-adv-x="113" unicode="‚"/><glyph d="M57 575q-16 0 -26.5 10.5t-10.5 25.5q0 6 1.5 13.5t6 22.5t17.5 29.5t32 23.5l2 -2q-11 -7 -23 -23t-12 -30q6 3 13 3q15 0 25.5 -11t10.5 -26t-10.5 -25.5t-25.5 -10.5zM156 575q-16 0 -26.5 10.5t-10.5 25.5q0 6 1.5 13.5t6 22.5t17.5 29.5t32 23.5l2 -2 q-11 -7 -23 -23t-12 -30q6 3 13 3q15 0 25.5 -11t10.5 -26t-10.5 -25.5t-25.5 -10.5z" glyph-name="quotedblleft" horiz-adv-x="212" unicode="“"/><glyph d="M156 700q15 0 25.5 -10.5t10.5 -25.5q0 -62 -57 -89l-2 2q11 7 23 23t12 30q-6 -3 -12 -3q-16 0 -26.5 10.5t-10.5 26.5q0 15 10.5 25.5t26.5 10.5zM57 700q15 0 25.5 -10.5t10.5 -25.5q0 -62 -57 -89l-2 2q11 7 23 23t12 30q-6 -3 -12 -3q-16 0 -26.5 10.5t-10.5 26.5 q0 15 10.5 25.5t26.5 10.5z" glyph-name="quotedblright" horiz-adv-x="212" unicode="”"/><glyph d="M156 74q15 0 25.5 -11t10.5 -26q0 -61 -57 -90l-2 3h1h-1q11 7 22.5 23t12.5 29q-8 -2 -12 -2q-16 0 -26.5 10.5t-10.5 26.5q0 15 10.5 26t26.5 11zM57 74q15 0 25.5 -11t10.5 -26q0 -61 -57 -90l-2 3h1h-1q11 7 22.5 23t12.5 29q-8 -2 -12 -2q-16 0 -26.5 10.5 t-10.5 26.5q0 15 10.5 26t26.5 11z" glyph-name="quotedblbase" horiz-adv-x="212" unicode="„"/><glyph d="M455 424q-94 23 -209 27v-111q3 -99 28 -340h-73q2 16 7.5 62.5t12 128.5t8.5 149v111q-115 -4 -209 -27v73q63 -23 209 -28v16q-5 153 -28 215h73q-24 -98 -28 -215v-16q146 5 209 28v-73z" glyph-name="dagger" horiz-adv-x="476" unicode="†"/><glyph d="M455 424q-94 23 -209 27v-203q146 5 209 28v-73q-94 23 -209 27v-15q4 -117 28 -215h-73q23 62 28 215v15q-115 -4 -209 -27v73q63 -23 209 -28v203q-115 -4 -209 -27v73q63 -23 209 -28v16q-5 153 -28 215h73q-24 -98 -28 -215v-16q146 5 209 28v-73z" glyph-name="daggerdbl" horiz-adv-x="476" unicode="‡"/><glyph d="M163 263q0 -34 -23.5 -57.5t-57.5 -23.5t-57.5 23.5t-23.5 57.5t23.5 57.5t57.5 23.5t57.5 -23.5t23.5 -57.5z" glyph-name="bullet" horiz-adv-x="184" unicode="•"/><glyph d="M93 37q0 -16 -10.5 -26.5t-25.5 -10.5q-16 0 -26.5 10.5t-10.5 26.5q0 15 10.5 25.5t26.5 10.5q15 0 25.5 -10.5t10.5 -25.5zM206 37q0 -16 -10.5 -26.5t-25.5 -10.5q-16 0 -26.5 10.5t-10.5 26.5q0 15 10.5 25.5t26.5 10.5q15 0 25.5 -10.5t10.5 -25.5zM319 37 q0 -16 -10.5 -26.5t-25.5 -10.5q-16 0 -26.5 10.5t-10.5 26.5q0 15 10.5 25.5t26.5 10.5q15 0 25.5 -10.5t10.5 -25.5z" glyph-name="ellipsis" horiz-adv-x="339" unicode="…"/><glyph d="M140 700q49 0 84 -62t35 -151t-35 -151t-84 -62q-50 0 -85 62.5t-35 150.5t35 150.5t85 62.5zM177 0h-13l247 700h12zM160 286q32 3 49 64.5t8 144.5q-8 83 -36.5 139.5t-60.5 53.5q-32 -4 -49 -65t-9 -144t37 -139.5t61 -53.5zM449 426q50 0 85 -62.5t35 -150.5 t-35 -150.5t-85 -62.5t-85 62.5t-35 150.5t35 150.5t85 62.5zM733 426q49 0 84 -62t35 -151t-35 -151t-84 -62q-50 0 -85 62.5t-35 150.5t35 150.5t85 62.5zM469 12q32 4 49 65t9 144q-9 84 -37.5 140t-60.5 53t-49 -64.5t-9 -144.5t37 -139.5t61 -53.5zM753 12 q32 4 48.5 65t8.5 144t-36.5 139.5t-60.5 53.5t-49 -64.5t-9 -144.5t37 -139.5t61 -53.5z" glyph-name="perthousand" horiz-adv-x="873" unicode="‰"/><glyph d="M370 435l-324 -172l324 -172l-6 -11l-344 183l344 183z" glyph-name="guilsinglleft" horiz-adv-x="390" unicode="‹"/><glyph d="M20 435l6 11l344 -183l-344 -183l-6 11l324 172z" glyph-name="guilsinglright" horiz-adv-x="390" unicode="›"/><glyph d="M33 0h-13l247 700h13z" glyph-name="fraction" horiz-adv-x="300" unicode="⁄"/><glyph d="M331 12q40 5 65 54l7 -26q-51 -49 -110 -49q-84 0 -146 91t-72 225h-45v12h44q-1 10 -1 31t1 31h-44v12h45q10 134 72 225t146 91q59 0 110 -49l-21 -75q-59 112 -128 103q-55 -6 -88 -90t-29 -205h138v-12h-137q1 -19 5 -62h100v-12h-98q18 -124 67.5 -207.5 t106.5 -88.5q8 0 12 1z" glyph-name="Euro" horiz-adv-x="434" unicode="€"/><glyph d="M45 696q-12 0 -12 -9q0 -10 12 -10q3 0 11 3t14 3q16 0 25 -12t9 -27v-169h-23v193q0 11 -12 11q-5 0 -17 -4.5t-18 -4.5q-14 0 -14 13q0 17 32 17q7 0 29.5 -2t36.5 -2q22 0 39 4l7 -23q-12 -3 -24 -3q-22 0 -54 11t-41 11zM298 700h23v-225h-27v3q1 2 1.5 6.5t1 10 t1 15t0.5 19.5v110q-3 -33 -6 -54t-8.5 -46.5t-14.5 -38.5t-20 -13q-22 0 -30 32.5t-6.5 72t-3.5 72t-20 32.5v-121q0 -74 26 -100h-30v225h4q28 0 36.5 -47.5t12 -95t17.5 -47.5q30 0 43 174v16z" glyph-name="trademark" horiz-adv-x="342" unicode="™"/><glyph d="M323 269v-12h-303v12h303z" glyph-name="minus" horiz-adv-x="343" unicode="−"/><glyph d="M459 700h73v-700h-73v433q-106 -18 -217 -72q12 -33 57 -132q69 -151 73 -229h-342v700h73v-688q141 0 190 52q-12 57 -45 144q-4 12 -14.5 42t-16.5 46.5t-13.5 41.5t-13 47.5t-9.5 45.5q-5 34 -4 60q6 119 79.5 164t202.5 45zM214 544q-4 -17 -4 -53q1 -38 17 -87 q115 57 232 78v206q-41 0 -78.5 -6.5t-74 -21.5t-61 -45t-31.5 -71zM237 373q116 54 222 72v25q-113 -20 -229 -78q2 -4 7 -19z" glyph-name="L_A.dlig" horiz-adv-x="572"/><glyph d="M109 687q-39 0 -39 -27q0 -16 12 -23.5t26 -7.5q8 0 34.5 9t42.5 9q51 0 78.5 -37t27.5 -84v-526h-72v602q0 33 -35 33q-18 0 -54.5 -14.5t-56.5 -14.5q-18 0 -30.5 12.5t-12.5 29.5q0 52 99 52q19 0 111 -7t149 -7q89 0 140 14h73v-700h-73v622q-24 -4 -56 -4 q-77 0 -208.5 34.5t-155.5 34.5z" glyph-name="T_I.dlig" horiz-adv-x="632"/><glyph d="M109 687q-39 0 -39 -27q0 -16 12 -23.5t26 -7.5q8 0 34.5 9t42.5 9q51 0 78.5 -37t27.5 -84v-526h-72v602q0 33 -35 33q-18 0 -54.5 -14.5t-56.5 -14.5q-18 0 -30.5 12.5t-12.5 29.5q0 52 99 52q19 0 111 -7t149 -7q89 0 140 14h73v-288q107 51 215 70v218h73v-700h-73 v433q-104 -18 -215 -71v-362h-73v622q-24 -4 -56 -4q-77 0 -208.5 34.5t-155.5 34.5zM602 376q115 53 215 69v25q-108 -20 -215 -71v-23z" glyph-name="T_H.dlig" horiz-adv-x="920"/><glyph d="M109 687q-39 0 -39 -27q0 -16 12 -23.5t26 -7.5q8 0 34.5 9t42.5 9q51 0 78.5 -37t27.5 -84v-526h-72v602q0 33 -35 33q-18 0 -54.5 -14.5t-56.5 -14.5q-18 0 -30.5 12.5t-12.5 29.5q0 52 99 52q19 0 111 -7t149 -7q89 0 140 14h73v-428q19 127 67.5 190t130.5 63h73 q5 -23 8.5 -56.5t5.5 -106t-14.5 -169t-51.5 -193.5h-73q29 90 45 172t19.5 133t0.5 96t-6 60t-7 26q-178 0 -198 -317v-170h-73v622q-24 -4 -56 -4q-77 0 -208.5 34.5t-155.5 34.5z" glyph-name="T_h.dlig" horiz-adv-x="917"/><glyph d="M227 45l7 -24q-30 -30 -68 -30q-29 0 -49 13t-31.5 32.5t-17.5 52.5t-7.5 61.5t-1.5 70.5v292h-29q26 12 53 47.5t39 75.5h10v-111h152q23 18 43.5 48.5t29.5 62.5h10v-111h102l-10 -36q-14 24 -68 24h-24v-286q0 -115 8.5 -164.5t28.5 -56.5q17 -5 34 7t24 32l7 -24 q-30 -30 -68 -30q-29 0 -49 13t-31.5 32.5t-17.5 52.5t-7.5 61.5t-1.5 70.5v292h-162v-286q0 -115 8.5 -164.5t28.5 -56.5q17 -5 34 7t24 32z" glyph-name="t_t.dlig" horiz-adv-x="500"/></font>
</defs>
</svg>
